
<svg xmlns:dc="http://purl.org/dc/elements/1.1/" xmlns:cc="http://creativecommons.org/ns#" xmlns:rdf="http://www.w3.org/1999/02/22-rdf-syntax-ns#" xmlns:svg="http://www.w3.org/2000/svg" xmlns="http://www.w3.org/2000/svg" xmlns:xlink="http://www.w3.org/1999/xlink" id="svg14314" version="1.1" viewBox="186.18 333.13 651.65 101.75">
  <metadata id="metadata14320">
    <rdf:rdf>
      <cc:work rdf:about="">
        <dc:format>image/svg+xml</dc:format>
        <dc:type rdf:resource="http://purl.org/dc/dcmitype/StillImage"/>
      </cc:work>
    </rdf:rdf>
  </metadata>
  <defs id="defs14318"/>
  <linearGradient spreadMethod="pad" y2="30%" x2="-10%" y1="120%" x1="30%" id="3d_gradient2-logo-e79f9181-e8cb-44ac-b76a-0f5a731817ab">
    <stop id="stop14295" stop-opacity="1" stop-color="#ffffff" offset="0%"/>
    <stop id="stop14297" stop-opacity="1" stop-color="#000000" offset="100%"/>
  </linearGradient>
  <linearGradient gradientTransform="rotate(-30)" spreadMethod="pad" y2="30%" x2="-10%" y1="120%" x1="30%" id="3d_gradient3-logo-e79f9181-e8cb-44ac-b76a-0f5a731817ab">
    <stop id="stop14300" stop-opacity="1" stop-color="#ffffff" offset="0%"/>
    <stop id="stop14302" stop-opacity="1" stop-color="#cccccc" offset="50%"/>
    <stop id="stop14304" stop-opacity="1" stop-color="#000000" offset="100%"/>
  </linearGradient>
  <g id="logo-group">
    <image xlink:href="" id="container" style="display: none;" x="272" y="144" width="480" height="480" transform="translate(0 0)"/>
    <g id="logo-center" transform="translate(136.17803281249985 0)">
      <image xlink:href="" id="icon_container" style="display: none;" x="0" y="0"/>
      <g id="slogan" style="font-style:normal;font-weight:normal;font-size:32px;line-height:1;font-family:'Brandmark Sans 30 Color';font-variant-ligatures:none;text-align:center;text-anchor:middle" transform="translate(0 0)"/>
      <g id="title" style="font-style:normal;font-weight:normal;font-size:72px;line-height:1;font-family:'Brandmark Sans 30 Color';font-variant-ligatures:normal;text-align:center;text-anchor:middle" transform="translate(0 0)">
        <g id="path14323" aria-label="P" transform="translate(0 337.84749999999997) translate(50 -4.562500000000014) scale(2.1875) translate(-363.04494 46.008)"> <path class="c1" d="M82.50441,76.30783h19.9458c8.92871,0,15.04907,5.47247,15.04907,14.97729 c0,9.00079-5.68848,15.04932-15.04907,15.04932H91.86525v15.98538h-9.36084V96.97363h19.9458 c4.68018,0,5.68848-1.08011,5.68848-5.68851c0-4.68039-1.0083-5.61646-5.68848-5.61646h-19.9458V76.30783z" transform="translate(280.54053 -122.31583)" stroke-width="0" stroke-linejoin="miter" stroke-miterlimit="2" fill="#ffffff" stroke="#ffffff"/> </g>
        <g id="path14325" aria-label="a" transform="translate(0 337.84749999999997) translate(130.28807499999996 13.392499999999998) scale(2.1875) translate(-399.74806 37.8)"> <path class="c1" d="M80.88426,103.45419c0-10.44092,7.1286-18.93762,17.64154-18.93762 c4.75238,0,8.4967,1.72815,11.23297,4.6084v-4.24841h9.36078v37.44324h-9.36078v-4.24835 c-2.73627,2.95227-6.48059,4.68042-11.23297,4.68042C88.01286,122.75185,80.88426,114.18313,80.88426,103.45419z M97.80571,113.46304h4.32037c4.89642,0,7.63269-3.02423,7.63269-7.84869v-4.32031c0-4.82446-2.73627-7.84869-7.63269-7.84869 h-4.32037c-4.89642,0-8.2807,3.74432-8.2807,10.00885S92.90929,113.46304,97.80571,113.46304z" transform="translate(318.8638 -122.31657)" stroke-width="0" stroke-linejoin="miter" stroke-miterlimit="2" fill="#ffffff" stroke="#ffffff"/> </g>
        <g id="path14327" aria-label="r" transform="translate(0 337.84749999999997) translate(220.72752812500002 13.392499999999998) scale(2.1875) translate(-441.09181 37.8)"> <path class="c1" d="M99.92921,84.87655v2.80829c2.08813-2.16022,5.1123-3.16827,9.50464-3.16827v9.2168h-3.88818 c-4.53638,0-5.61646,3.16827-5.61646,8.2807v20.30573h-9.36084V84.87655H99.92921z" transform="translate(350.52344 -122.31657)" stroke-width="0" stroke-linejoin="miter" stroke-miterlimit="2" fill="#ffffff" stroke="#ffffff"/> </g>
        <g id="path14329" aria-label="a" transform="translate(0 337.84749999999997) translate(261.02539062500006 13.392499999999998) scale(2.1875) translate(-459.51369 37.8)"> <path class="c1" d="M80.88426,103.45419c0-10.44092,7.1286-18.93762,17.64154-18.93762 c4.75238,0,8.4967,1.72815,11.23297,4.6084v-4.24841h9.36078v37.44324h-9.36078v-4.24835 c-2.73627,2.95227-6.48059,4.68042-11.23297,4.68042C88.01286,122.75185,80.88426,114.18313,80.88426,103.45419z M97.80571,113.46304h4.32037c4.89642,0,7.63269-3.02423,7.63269-7.84869v-4.32031c0-4.82446-2.73627-7.84869-7.63269-7.84869 h-4.32037c-4.89642,0-8.2807,3.74432-8.2807,10.00885S92.90929,113.46304,97.80571,113.46304z" transform="translate(378.62943 -122.31657)" stroke-width="0" stroke-linejoin="miter" stroke-miterlimit="2" fill="#ffffff" stroke="#ffffff"/> </g>
        <g id="path14331" aria-label="d" transform="translate(0 337.84749999999997) translate(351.4648437500001 -4.719999999999999) scale(2.1875) translate(-500.85744 46.08)"> <path class="c1" d="M80.88423,103.45419c0-10.44092,7.1286-18.93762,17.64154-18.93762 c4.75238,0,8.4967,1.72815,11.23297,4.6084V76.2358h9.36078v46.08398h-9.36078v-4.24835 c-2.73627,2.95227-6.48059,4.68042-11.23297,4.68042C88.01283,122.75185,80.88423,114.18313,80.88423,103.45419z M97.80568,113.46304h4.32037c4.89642,0,7.63269-3.02423,7.63269-7.84869v-4.32031c0-4.82446-2.73627-7.84869-7.63269-7.84869 h-4.32037c-4.89642,0-8.2807,3.74432-8.2807,10.00885S92.90926,113.46304,97.80568,113.46304z" transform="translate(419.97321 -122.3158)" stroke-width="0" stroke-linejoin="miter" stroke-miterlimit="2" fill="#ffffff" stroke="#ffffff"/> </g>
        <g id="path14333" aria-label="a" transform="translate(0 337.84749999999997) translate(441.90429687500017 13.392499999999998) scale(2.1875) translate(-542.20119 37.8)"> <path class="c1" d="M80.88426,103.45419c0-10.44092,7.1286-18.93762,17.64154-18.93762 c4.75238,0,8.4967,1.72815,11.23297,4.6084v-4.24841h9.36078v37.44324h-9.36078v-4.24835 c-2.73627,2.95227-6.48059,4.68042-11.23297,4.68042C88.01286,122.75185,80.88426,114.18313,80.88426,103.45419z M97.80571,113.46304h4.32037c4.89642,0,7.63269-3.02423,7.63269-7.84869v-4.32031c0-4.82446-2.73627-7.84869-7.63269-7.84869 h-4.32037c-4.89642,0-8.2807,3.74432-8.2807,10.00885S92.90929,113.46304,97.80571,113.46304z" transform="translate(461.31693 -122.31657)" stroke-width="0" stroke-linejoin="miter" stroke-miterlimit="2" fill="#ffffff" stroke="#ffffff"/> </g>
        <g id="path14335" aria-label="n" transform="translate(0 337.84749999999997) translate(532.3437500000002 13.392499999999998) scale(2.1875) translate(-583.54494 37.8)"> <path class="c1" d="M91.36134,84.87655v2.80829c2.08838-2.16022,5.11255-3.16827,9.50488-3.16827 c11.66504,0,17.13745,5.40045,17.13745,16.92145v20.88177h-9.36084v-18.72156c0-6.69659-1.65601-9.86487-6.19238-9.86487h-5.47241 c-4.53662,0-5.6167,3.16827-5.6167,8.2807v20.30573H82.0005V84.87655H91.36134z" transform="translate(501.54444 -122.31657)" stroke-width="0" stroke-linejoin="miter" stroke-miterlimit="2" fill="#ffffff" stroke="#ffffff"/> </g>
        <g id="path14337" aria-label="e" transform="translate(0 337.84749999999997) translate(618.1689343750003 13.392499999999998) scale(2.1875) translate(-622.77931 37.8)"> <path class="c1" d="M80.92043,103.45419c0-12.60107,6.84058-18.93762,19.08179-18.93762 c12.24097,0,19.08154,6.33655,19.08154,18.93762v3.2403H89.92128c0.93604,4.32037,3.96033,6.76855,7.92065,6.76855h4.32043 c2.95215,0,5.32837-1.3681,6.76855-3.81635h9.43286c-1.51221,9.00079-8.35278,13.10516-18.36157,13.10516 C87.2571,122.75185,80.92043,115.91128,80.92043,103.45419z M109.65089,98.77377c-1.224-3.38428-3.96021-5.32843-7.48853-5.32843 h-4.32043c-3.52832,0-6.26453,1.94415-7.48865,5.32843H109.65089z" transform="translate(541.85888 -122.31657)" stroke-width="0" stroke-linejoin="miter" stroke-miterlimit="2" fill="#ffffff" stroke="#ffffff"/> </g>
              </g>
      <image xlink:href="" id="icon" style="display: none;" x="0" y="0"/>
    </g>
  </g>
</svg>