<svg width="1920" height="474" viewBox="0 0 1920 474" fill="none" xmlns="http://www.w3.org/2000/svg">
  <rect width="100%" height="100%" fill="#0a3d80"/>
<!-- <g opacity="0.3"> -->
<g fill="#FFD700" stroke="#FFA500" stroke-width="1.5" opacity="0.9">
<path d="M648.673 473.396C639.202 473.396 629.983 473.009 621.124 472.238C602.543 470.62 585.377 467.297 570.102 462.362C553.684 457.06 539.284 449.834 527.299 440.888C503.212 422.905 491.161 401.37 479.506 380.542C477.216 376.453 474.849 372.224 472.445 368.121C456.045 340.156 435.255 315.66 408.892 293.233C356.303 248.496 282.344 210.317 195.009 182.822C94.0064 151.026 -14.5879 135.187 -110.772 138.224C-167.304 140.01 -241.999 156.991 -275.382 185.992C-295.193 203.204 -296.791 222.304 -279.999 241.225L-280.332 241.305C-289.137 231.382 -292.973 221.434 -291.731 211.737C-290.591 202.842 -285.198 194.147 -275.697 185.893C-260.587 172.765 -235.668 161.13 -203.633 152.245C-174.032 144.035 -141.063 138.987 -110.794 138.032C-60.4578 136.444 -6.92279 139.968 48.3233 148.509C98.4032 156.252 147.82 167.741 195.199 182.656C282.586 210.166 356.589 248.367 409.208 293.131C435.585 315.572 456.386 340.082 472.797 368.062C475.204 372.165 477.571 376.396 479.857 380.485C491.502 401.297 503.545 422.818 527.6 440.774C550.862 458.141 582.351 468.663 621.186 472.044C674.966 476.728 740.274 466.932 795.879 445.838C876.011 415.442 931.624 371.198 985.408 328.412C994.836 320.913 1004.58 313.158 1014.23 305.67C1039.29 286.225 1073.22 261.028 1113.55 238.581C1154.77 215.636 1196.65 198.779 1241.6 187.043C1269.12 179.859 1298.28 175.02 1328.27 172.659C1355.97 170.477 1385.3 170.342 1415.43 172.253C1467.11 175.534 1522.78 184.8 1585.64 200.58C1709.42 231.654 1833.05 269.371 1953.12 312.686C2067.25 353.855 2179.18 400.44 2285.8 451.144L2285.55 451.285C2064.53 346.178 1828.99 261.887 1585.48 200.751C1447.91 166.212 1338.69 161.909 1241.77 187.212C1143.17 212.954 1074.29 259.408 1014.54 305.775C1004.89 313.261 995.143 321.016 985.716 328.515C931.917 371.316 876.286 415.573 796.099 445.99C770.187 455.82 741.036 463.488 711.801 468.162C696.357 470.631 681.005 472.246 666.166 472.962C660.252 473.253 654.415 473.396 648.673 473.396Z" fill="#FFE492"/>
<path d="M657.934 462.731C633.781 462.731 611.408 460.342 591.414 455.626C569.118 450.367 549.878 442.218 534.226 431.408C532.841 430.45 531.466 429.46 530.14 428.462C506.309 410.558 493.723 389.302 481.555 368.745C479.093 364.591 476.55 360.294 473.971 356.124C458.607 331.297 440.108 309.415 417.409 289.231C414.613 286.746 411.719 284.256 408.799 281.83C355.436 237.478 280.877 199.782 193.182 172.816C91.4504 141.563 -17.4517 126.379 -113.464 130.063C-169.586 132.239 -243.936 149.499 -277.462 178.277C-297.537 195.509 -299.809 214.648 -284.039 233.624L-284.376 233.7C-292.642 223.754 -296.038 213.787 -294.466 204.079C-293.023 195.163 -287.41 186.448 -277.777 178.178C-262.513 165.073 -237.667 153.425 -205.933 144.493C-176.602 136.238 -143.776 131.046 -113.497 129.873C-63.2227 127.944 -9.62904 131.131 45.793 139.345C95.9937 146.786 145.645 157.992 193.365 172.653C281.111 199.633 355.711 237.352 409.106 281.729C412.027 284.157 414.925 286.649 417.721 289.136C440.434 309.333 458.945 331.226 474.315 356.067C476.898 360.236 479.441 364.534 481.903 368.69C494.068 389.233 506.643 410.474 530.441 428.354C531.763 429.348 533.137 430.338 534.519 431.293C566.865 453.64 611.309 462.731 658.047 462.731C658.304 462.731 658.557 462.731 658.813 462.731C658.52 462.729 658.227 462.731 657.934 462.731ZM667.904 462.598C711.355 461.439 756.192 452.762 794.657 439.855C877.629 411.9 937.261 368.722 994.932 326.967C997.307 325.246 999.681 323.528 1002.06 321.811C1007.27 318.041 1013.45 313.578 1019.76 309.079C1048.06 288.903 1082.32 265.428 1121.77 244.298C1163.74 221.814 1205.68 205.13 1249.97 193.289C1277.18 186.022 1305.94 180.902 1335.44 178.073C1362.78 175.451 1391.67 174.711 1421.3 175.87C1472.49 177.875 1527.53 185.476 1589.57 199.108C1650.06 212.378 1699.78 224.87 1746.05 238.42C1811.59 257.635 1874.02 279.774 1926.45 298.895C2048.34 343.478 2167.93 394.102 2281.91 449.362L2281.66 449.501C2167.69 394.248 2048.11 343.628 1926.24 299.051C1873.82 279.932 1811.4 257.797 1745.87 238.588C1699.62 225.041 1649.91 212.553 1589.43 199.287C1454.29 169.589 1346.47 167.737 1250.14 193.461C1150.15 220.188 1078.95 267.214 1020.06 309.194C1013.74 313.693 1007.57 318.154 1002.35 321.925C999.978 323.641 997.603 325.36 995.229 327.081C937.539 368.85 877.885 412.043 794.855 440.019C774.267 446.927 752.359 452.414 729.738 456.326C708.681 459.965 687.924 462.069 667.904 462.598Z" fill="#FFE492"/>
<path d="M668.145 452.311C665.24 452.311 662.352 452.279 659.487 452.212C635.356 451.658 613.024 448.782 593.113 443.658C571.338 438.055 552.472 429.755 537.043 418.989C535.672 418.029 534.306 417.037 532.987 416.039C509.423 398.222 496.314 377.25 483.64 356.972C480.998 352.745 478.265 348.373 475.495 344.131C459.373 319.388 440.386 297.681 417.442 277.77C414.602 275.308 411.664 272.838 408.699 270.432C354.563 226.466 279.403 189.253 191.35 162.817C88.8926 132.107 -20.3173 117.576 -116.161 121.907C-170.124 124.384 -244.259 140.659 -279.507 170.536C-299.871 187.797 -302.835 206.987 -288.08 226.03L-288.421 226.1C-296.152 216.124 -299.102 206.134 -297.196 196.408C-295.445 187.464 -289.597 178.727 -279.818 170.437C-264.392 157.362 -239.627 145.71 -208.197 136.737C-179.142 128.442 -146.466 123.109 -116.194 121.719C-65.9783 119.451 -12.326 122.299 43.2682 130.186C93.5935 137.325 143.476 148.248 191.533 162.654C279.638 189.107 354.838 226.34 409.007 270.331C411.971 272.739 414.914 275.209 417.753 277.674C440.708 297.597 459.706 319.317 475.835 344.074C478.605 348.318 481.339 352.69 483.98 356.916C496.651 377.184 509.75 398.141 533.284 415.937C534.603 416.934 535.962 417.924 537.332 418.88C600.027 462.629 711.135 457.932 793.433 433.872C879.867 408.38 944.101 366.012 1006.22 325.039L1006.86 324.618C1012.87 320.646 1019.1 316.541 1025.29 312.488C1090.63 269.725 1162.45 225.779 1258.33 199.533C1285.25 192.18 1313.62 186.78 1342.63 183.485C1369.62 180.419 1398.07 179.073 1427.19 179.484C1477.97 180.2 1532.37 186.137 1593.51 197.633C1657.76 209.671 1706.12 220.737 1750.29 233.514C1813.23 251.756 1874.19 274.807 1927.98 295.145C2047.74 340.67 2165.51 391.955 2278.03 447.571L2277.77 447.708C2165.27 392.097 2047.51 340.819 1927.76 295.297C1873.98 274.963 1813.03 251.916 1750.11 233.68C1705.95 220.906 1657.62 209.845 1593.39 197.81C1460.86 172.891 1354.45 173.491 1258.5 199.698C1162.68 225.927 1090.89 269.855 1025.57 312.602C1019.38 316.656 1013.16 320.762 1007.14 324.732L1006.51 325.153C975.549 345.571 943.54 366.684 908.974 385.542C870.128 406.735 832.392 422.597 793.609 434.034C753.033 445.895 708.834 452.311 668.145 452.311Z" fill="#FFE492"/>
<path d="M2273.89 445.912C2162.85 389.944 2046.91 338.006 1929.29 291.543C1924.31 289.589 1919.32 287.626 1914.31 285.657C1863.37 265.624 1810.69 244.909 1754.36 228.771C1699.71 213.159 1644.32 203.613 1597.35 196.334C1467.69 176.118 1362.69 179.17 1266.88 205.936C1168.54 233.493 1092.33 279.247 1031.1 316.012C1027.43 318.219 1023.76 320.429 1020.09 322.642C1017.37 324.275 1014.66 325.909 1011.94 327.54C977.081 348.495 945.368 367.23 910.329 384.325C870.3 403.854 831.718 418.157 792.37 428.051C755.495 437.325 716.103 442.232 679.463 442.234C672.787 442.234 666.21 442.072 659.747 441.743C636.151 440.541 614.306 437.165 594.82 431.709C573.558 425.755 555.066 417.298 539.849 406.571C538.49 405.61 537.134 404.616 535.822 403.616C512.537 385.892 498.918 365.216 485.75 345.22C482.914 340.914 479.979 336.458 477.011 332.135C460.12 307.469 440.642 285.935 417.471 266.302C414.587 263.859 411.601 261.413 408.596 259.027C353.684 215.448 277.926 178.719 189.517 152.81C86.3347 122.642 -23.1792 108.768 -118.854 113.741C-184.261 117.208 -251.144 137.363 -281.504 162.752C-302.187 180.05 -305.855 199.3 -292.118 218.424L-292.463 218.49C-299.655 208.477 -302.162 198.457 -299.912 188.707C-297.842 179.73 -291.752 170.964 -281.815 162.651C-266.229 149.615 -241.544 137.963 -210.429 128.957C-181.652 120.628 -149.145 115.156 -118.891 113.553C-68.734 110.944 -15.0268 113.455 40.7396 121.014C91.1859 127.853 141.306 138.494 189.7 152.642C278.165 178.566 353.962 215.316 408.908 258.922C411.916 261.31 414.902 263.758 417.786 266.201C440.972 285.846 460.457 307.391 477.359 332.068C480.327 336.394 483.262 340.847 486.098 345.156C499.259 365.139 512.871 385.803 536.126 403.506C537.438 404.503 538.79 405.495 540.146 406.455C605.596 452.595 716.84 446.832 792.212 427.878C882.138 405.263 950.952 363.906 1011.67 327.415C1014.38 325.781 1017.1 324.148 1019.81 322.516C1023.48 320.303 1027.15 318.093 1030.83 315.886C1065.78 294.901 1100.29 274.508 1138.24 255.716C1181.87 234.104 1223.9 217.767 1266.71 205.768C1293.35 198.326 1321.31 192.646 1349.82 188.89C1376.47 185.377 1404.48 183.427 1433.09 183.092C1483.54 182.502 1537.31 186.774 1597.46 196.151C1644.45 203.434 1699.86 212.984 1754.54 228.606C1810.89 244.749 1863.58 265.47 1914.54 285.507C1919.54 287.476 1924.54 289.439 1929.52 291.392C2047.14 337.86 2163.1 389.803 2274.15 445.777L2273.89 445.912Z" fill="#FFE492"/>
<path d="M2270.01 444.118C2158.33 386.722 2044.22 334.124 1930.82 287.788C1924.04 285.016 1917.1 282.158 1910.38 279.395C1862.31 259.609 1812.6 239.15 1758.61 223.863C1704.69 208.652 1648.84 200.663 1601.31 194.856C1474.81 179.25 1371.2 184.752 1275.26 212.173C1183.75 238.422 1112.05 277.895 1042.72 316.067L1035.1 320.257C1029.09 323.568 1022.87 326.99 1016.74 330.346C947.34 368.3 877.863 403.871 791.132 422.065C770.086 426.48 748.475 429.54 726.894 431.164C703.719 432.906 681.208 432.931 659.982 431.236C636.928 429.395 615.578 425.528 596.525 419.742C575.79 413.446 557.668 404.834 542.667 394.149C541.315 393.182 539.97 392.186 538.67 391.189C515.671 373.57 501.561 353.198 487.916 333.496C484.871 329.099 481.72 324.553 478.54 320.138C460.864 295.548 440.903 274.188 417.512 254.836C414.588 252.418 411.558 249.991 408.505 247.624C352.82 204.431 276.465 168.186 187.693 142.804C83.7814 113.183 -26.0404 99.9619 -121.55 105.58C-186.36 109.474 -252.939 129.77 -283.453 154.938C-304.48 172.279 -308.874 191.604 -296.159 210.825L-296.508 210.887C-303.161 200.831 -305.217 190.772 -302.619 180.994C-300.223 171.979 -293.88 163.179 -283.768 154.839C-268.012 141.847 -243.416 130.206 -212.631 121.174C-184.139 112.814 -151.808 107.21 -121.594 105.394C-71.4962 102.447 -17.734 104.619 38.2083 111.85C88.7791 118.388 139.13 128.746 187.865 142.639C276.689 168.034 353.087 204.302 408.806 247.519C411.858 249.888 414.892 252.317 417.816 254.735C441.221 274.096 461.194 295.468 478.877 320.071C482.057 324.486 485.208 329.035 488.253 333.431C501.89 353.121 515.993 373.484 538.967 391.082C540.264 392.076 541.608 393.07 542.957 394.037C606.832 439.536 712.964 438.258 790.989 421.89C877.651 403.711 947.098 368.153 1016.47 330.217C1022.6 326.86 1028.82 323.439 1034.83 320.128L1042.45 315.937C1076.48 297.201 1111.67 277.824 1149.89 259.8C1193.18 239.386 1234.13 223.752 1275.08 212.005C1301.44 204.469 1329.01 198.51 1357 194.295C1383.32 190.331 1410.9 187.776 1438.97 186.7C1489.21 184.775 1542.33 187.383 1601.39 194.67C1648.94 200.481 1704.82 208.471 1758.77 223.695C1812.8 238.988 1862.52 259.453 1910.61 279.245C1917.32 282.007 1924.26 284.863 1931.05 287.637C2044.45 333.977 2158.58 386.579 2270.26 443.981L2270.01 444.118Z" fill="#FFE492"/>
<path d="M2266.12 442.325C2155.41 384.291 2043.11 331.034 1932.35 284.035C1924.03 280.504 1915.49 276.831 1907.24 273.28C1861.76 253.707 1814.73 233.469 1762.85 218.959C1709.19 204.009 1653.08 197.64 1605.27 193.383C1482.28 182.262 1380.07 190.217 1283.63 218.414C1199.47 243.125 1130.37 278.146 1063.54 312.014C1056.51 315.578 1049.24 319.262 1042.15 322.832C1033.83 327.024 1027.47 330.21 1021.54 333.157C989.769 348.933 951.942 367.099 912.246 382.208C870.179 398.218 830.157 409.299 789.89 416.085C768.715 419.653 747.196 421.904 725.927 422.772C703.089 423.705 680.976 423.019 660.209 420.733C637.708 418.256 616.856 413.897 598.225 407.78C578.021 401.147 560.276 392.381 545.481 381.73C544.147 380.765 542.81 379.767 541.513 378.766C518.818 361.265 504.235 341.207 490.129 321.81C486.857 317.311 483.475 312.659 480.063 308.141C461.593 283.62 441.144 262.435 417.544 243.371C414.576 240.974 411.502 238.569 408.406 236.222C351.947 193.415 274.992 157.654 185.861 132.8C81.2272 103.723 -28.9023 91.1585 -124.244 97.4186C-178.493 101.059 -249.348 117.829 -285.351 147.085C-306.756 164.479 -311.893 183.892 -300.201 203.223L-300.549 203.28C-306.665 193.172 -308.262 183.069 -305.302 173.253C-302.568 164.192 -295.962 155.354 -285.659 146.982C-269.735 134.043 -245.23 122.421 -214.786 113.37C-186.58 104.985 -154.443 99.254 -124.288 97.2301C-74.2482 93.9439 -20.4274 95.7774 35.6834 102.681C86.3752 108.918 136.961 118.994 186.033 132.632C275.215 157.499 352.215 193.282 408.707 236.113C411.803 238.461 414.88 240.869 417.848 243.268C441.459 262.342 461.919 283.538 480.401 308.071C483.815 312.591 487.197 317.242 490.469 321.741C504.565 341.129 519.144 361.175 541.813 378.657C543.11 379.657 544.444 380.653 545.778 381.616C598.917 419.874 690.133 432.691 789.776 415.9C880.014 400.696 953.624 366.617 1021.29 333.016C1027.22 330.069 1033.57 326.884 1041.89 322.691C1048.98 319.121 1056.25 315.437 1063.28 311.873C1096.18 295.2 1130.2 277.96 1166.49 261.816C1207.51 243.559 1245.78 229.307 1283.46 218.245C1309.57 210.61 1336.73 204.371 1364.19 199.702C1390.2 195.279 1417.35 192.121 1444.87 190.31C1494.98 187.016 1547.47 187.959 1605.34 193.191C1653.17 197.452 1709.31 203.822 1763.02 218.785C1814.93 233.305 1861.98 253.549 1907.47 273.128C1915.72 276.678 1924.26 280.351 1932.58 283.883C2043.35 330.888 2155.66 384.148 2266.38 442.186L2266.12 442.325Z" fill="#FFE492"/>
<path d="M2262.24 440.532C2152.48 381.856 2042.01 327.938 1933.87 280.281C1924.67 276.227 1915.23 271.972 1906.09 267.858C1862.56 248.259 1817.56 227.993 1767.09 214.05C1713.39 199.28 1657.16 194.567 1609.23 191.906C1491.81 185.21 1388.04 195.921 1292 224.652C1215.53 247.632 1149.98 278.375 1086.58 308.107C1073.78 314.112 1060.54 320.323 1047.67 326.242C1039.79 329.865 1032.82 333.047 1026.33 335.967C996.173 349.535 956.055 366.931 913.186 381.148C870.112 395.431 829.372 404.903 788.639 410.103C744.213 415.775 699.874 415.817 660.42 410.227C638.484 407.118 618.126 402.27 599.912 395.818C580.248 388.851 562.88 379.933 548.286 369.315C546.964 368.348 545.637 367.348 544.348 366.347C521.975 348.979 506.938 329.25 492.399 310.173C488.882 305.558 485.247 300.786 481.579 296.15C462.299 271.694 441.363 250.68 417.572 231.911C414.561 229.535 411.442 227.151 408.302 224.825C351.07 182.405 273.518 147.125 184.028 122.802C78.6723 94.2716 -31.765 82.3624 -126.942 89.2642C-191.443 94.0431 -255.846 114.111 -287.195 139.197C-309.011 156.654 -314.906 176.168 -304.244 195.628L-304.595 195.679C-310.168 185.51 -311.304 175.355 -307.974 165.496C-304.896 156.384 -298.007 147.5 -287.503 139.092C-271.41 126.214 -247.001 114.619 -216.912 105.56C-189.003 97.1579 -157.067 91.3014 -126.993 89.0738C-77.012 85.4487 -23.1326 86.9452 33.1505 93.5195C83.9668 99.456 134.787 109.25 184.196 122.631C273.738 146.969 351.334 182.268 408.603 224.714C411.743 227.041 414.861 229.427 417.876 231.805C441.678 250.585 462.625 271.608 481.916 296.076C485.584 300.712 489.219 305.485 492.736 310.1C507.268 329.168 522.297 348.888 544.648 366.238C545.938 367.24 547.26 368.235 548.583 369.203C600.81 407.213 690.516 422.433 788.551 409.918C877.924 398.508 955.535 367.563 1026.09 335.825C1032.57 332.904 1039.55 329.724 1047.42 326.101C1060.29 320.182 1073.53 313.973 1086.33 307.968C1149.74 278.23 1215.31 247.48 1291.82 224.49C1317.7 216.746 1344.46 210.229 1371.37 205.115C1397.1 200.226 1423.81 196.462 1450.75 193.928C1500.84 189.215 1552.7 188.494 1609.27 191.719C1657.22 194.383 1713.5 199.097 1767.26 213.885C1817.76 227.837 1862.78 248.11 1906.33 267.717C1915.46 271.831 1924.91 276.085 1934.11 280.138C2042.25 327.799 2152.74 381.721 2262.5 440.4L2262.24 440.532Z" fill="#FFE492"/>
<path d="M2258.35 438.738C2149.58 379.415 2040.92 324.841 1935.4 276.528C1925.71 272.088 1915.73 267.387 1906.09 262.841C1864.15 243.076 1820.78 222.637 1771.33 209.144C1717.41 194.499 1661.13 191.466 1613.19 190.43C1500.21 187.81 1397.88 201.045 1300.38 230.891C1231.99 251.922 1171.04 278.539 1112.08 304.278C1091.81 313.13 1072.66 321.49 1053.19 329.652C1045.27 332.974 1038.05 335.96 1031.13 338.776C986.446 356.93 949.271 370.056 914.133 380.082C870.051 392.661 828.596 400.524 787.398 404.119C771.415 405.513 755.491 406.208 739.857 406.208C712.142 406.208 685.325 404.029 660.637 399.715C615.958 391.907 579.105 377.5 551.101 356.894C549.782 355.917 548.467 354.917 547.192 353.92C525.16 336.702 509.701 317.324 494.752 298.582C490.963 293.833 487.05 288.925 483.104 284.152C463 259.753 441.572 238.914 417.61 220.444C414.554 218.089 411.392 215.726 408.208 213.42C350.203 171.387 272.049 136.59 182.2 112.795C76.1227 84.8127 -34.6187 73.5566 -129.63 81.1C-194.399 86.3492 -256.944 106.036 -288.964 131.256C-311.223 148.785 -317.899 168.415 -308.277 188.023L-308.633 188.071C-313.656 177.832 -314.323 167.615 -310.611 157.705C-307.174 148.532 -299.997 139.599 -289.268 131.151C-273.007 118.343 -248.704 106.786 -218.981 97.7272C-191.373 89.3117 -159.661 83.341 -129.685 80.9116C-79.7631 76.9476 -25.825 78.1052 30.6266 84.352C81.5675 89.9896 132.618 99.5016 182.368 112.624C272.269 136.434 350.466 171.25 408.508 213.308C411.692 215.615 414.854 217.978 417.914 220.335C441.891 238.815 463.329 259.665 483.441 284.074C487.387 288.847 491.304 293.757 495.089 298.505C510.031 317.238 525.482 336.609 547.496 353.811C548.771 354.807 550.082 355.806 551.401 356.781C603.694 395.264 689.689 412.449 787.335 403.929C880.288 395.818 962.619 366.366 1030.9 338.623C1037.82 335.807 1045.04 332.824 1052.96 329.502C1072.43 321.339 1091.58 312.981 1111.85 304.13C1170.81 278.385 1231.78 251.764 1300.19 230.725C1325.88 222.862 1352.24 216.065 1378.56 210.52C1404.05 205.151 1430.32 200.782 1456.64 197.536C1506.84 191.346 1558.06 188.958 1613.21 190.238C1661.19 191.274 1717.51 194.31 1771.5 208.973C1820.99 222.475 1864.37 242.924 1906.33 262.696C1915.98 267.243 1925.95 271.944 1935.64 276.382C2041.16 324.698 2149.83 379.278 2258.61 438.605L2258.35 438.738Z" fill="#FFE492"/>
<path d="M2254.47 436.945C2145.15 376.125 2041.28 322.425 1936.93 272.774C1926.97 268.037 1917.17 263.199 1906.79 258.077C1866.22 238.055 1824.26 217.354 1775.58 204.238C1720.98 189.598 1662.23 188.38 1617.15 188.955C1509.31 190.15 1408.43 205.909 1308.75 237.132C1248.94 255.956 1193.72 278.562 1140.32 300.425C1112.25 311.915 1085.74 322.766 1058.71 333.064C1050.68 336.124 1043.23 338.911 1035.92 341.586C990.63 358.143 952.231 370.035 915.071 379.014C869.967 389.912 827.797 396.166 786.152 398.135C764.754 399.146 743.503 398.956 722.988 397.57C701.268 396.102 680.361 393.286 660.85 389.202C617.603 380.148 581.626 365.102 553.915 344.476C552.607 343.498 551.303 342.496 550.035 341.498C528.373 324.458 512.526 305.449 497.2 287.067C493.111 282.162 488.883 277.09 484.629 272.159C463.681 247.813 441.771 227.148 417.643 208.982C414.54 206.648 411.333 204.306 408.113 202.021C349.335 160.375 270.584 126.062 180.375 102.794C97.1142 81.4068 11.2515 70.2478 -67.4847 70.2478C-89.7436 70.2478 -111.416 71.1388 -132.32 72.9418C-196.308 78.5699 -258.461 98.3271 -290.668 123.276C-313.399 140.888 -320.885 160.651 -312.315 180.427L-312.674 180.469C-317.148 170.149 -317.334 159.862 -313.231 149.895C-309.427 140.656 -301.938 131.663 -290.975 123.17C-274.546 110.442 -250.356 98.9325 -221.015 89.8831C-193.318 81.3401 -162.669 75.417 -132.386 72.7552C-82.5218 68.4523 -28.5251 69.2729 28.0987 75.1904C79.1605 80.5252 130.45 89.7536 180.537 102.62C270.796 125.902 349.595 160.234 408.41 201.905C411.634 204.19 414.844 206.534 417.947 208.87C442.086 227.045 464.008 247.72 484.966 272.077C489.22 277.008 493.452 282.08 497.541 286.987C512.86 305.362 528.699 324.363 550.343 341.39C551.611 342.386 552.915 343.387 554.219 344.364C606.04 382.932 690.561 402.459 786.123 397.943C882.82 393.371 970.302 365.338 1035.72 341.426C1043.02 338.751 1050.47 335.964 1058.5 332.906C1085.53 322.611 1112.03 311.759 1140.1 300.271C1193.51 278.406 1248.73 255.794 1308.56 236.964C1359.89 220.89 1410.25 209.175 1462.53 201.148C1512.96 193.406 1563.54 189.355 1617.15 188.76C1647.74 188.37 1672.7 189.048 1695.69 190.891C1725.38 193.271 1751.57 197.58 1775.75 204.064C1824.48 217.192 1866.46 237.905 1907.05 257.936C1917.43 263.058 1927.23 267.894 1937.18 272.631C2041.54 322.284 2145.42 375.988 2254.74 436.812L2254.47 436.945Z" fill="#FFE492"/>
<path d="M2250.58 435.151C2142.27 373.666 2040.17 319.325 1938.45 269.019C1928.39 264.042 1918.47 258.915 1907.97 253.487C1868.61 233.149 1827.91 212.116 1779.82 199.329C1724.77 184.758 1666.09 185.341 1621.11 187.475C1519.35 192.138 1419.91 210.422 1317.12 243.367C1266.48 259.678 1218.26 278.345 1171.63 296.398C1134.76 310.668 1099.95 324.148 1064.23 336.468C1056.16 339.256 1048.24 341.921 1040.71 344.389C995.335 359.247 954.544 370.219 916.009 377.934C869.868 387.172 826.984 391.822 784.907 392.145C763.498 392.309 742.331 391.304 722.006 389.154C700.7 386.9 680.196 383.376 661.063 378.677C619.3 368.42 584.195 352.734 556.726 332.051C555.436 331.074 554.139 330.071 552.875 329.068C531.62 312.235 515.429 293.628 499.769 275.634C495.339 270.542 490.755 265.276 486.15 260.156C464.345 235.856 441.947 215.366 417.676 197.511C414.529 195.198 411.279 192.877 408.014 190.613C348.463 149.353 269.111 115.523 178.544 92.7828C71.0268 65.8991 -40.3338 55.9529 -135.016 64.7758C-198.176 70.7637 -259.915 90.5723 -292.301 115.238C-315.546 132.943 -323.863 152.854 -316.359 172.823L-316.718 172.859C-320.632 162.45 -320.331 152.083 -315.821 142.047C-311.633 132.731 -303.825 123.674 -292.605 115.129C-276.015 102.493 -251.946 91.0407 -223 82.0103C-195.622 73.4692 -165.222 67.4451 -135.082 64.5873C-85.2731 59.9474 -31.2214 60.4272 25.571 66.0172C76.7574 71.055 128.277 80.0016 178.701 92.6095C269.324 115.362 348.719 149.212 408.304 190.497C411.572 192.761 414.826 195.083 417.973 197.399C442.258 215.263 464.664 235.763 486.479 260.073C491.089 265.192 495.669 270.459 500.102 275.552C515.755 293.538 531.939 312.138 553.179 328.959C554.443 329.961 555.74 330.964 557.026 331.939C609.393 371.366 690.32 392.682 784.899 391.951C861.642 391.361 942.866 376.194 1040.52 344.223C1048.04 341.756 1055.95 339.092 1064.02 336.304C1099.73 323.986 1134.55 310.51 1171.4 296.24C1218.04 278.185 1266.27 259.515 1316.93 243.2C1368.75 226.588 1418.3 214.014 1468.42 204.755C1519.18 195.377 1569.12 189.659 1621.08 187.279C1666.1 185.141 1724.85 184.56 1779.99 199.154C1828.13 211.956 1868.85 232.999 1908.23 253.346C1918.73 258.774 1928.65 263.9 1938.71 268.875C2040.43 319.182 2142.53 373.527 2250.85 435.016L2250.58 435.151Z" fill="#FFE492"/>
<path d="M2246.7 433.358C2139.39 371.204 2039.07 316.22 1939.98 265.266C1929.93 260.093 1919.99 254.719 1909.48 249.028C1871.24 228.326 1831.69 206.92 1784.07 194.423C1728.5 179.905 1669.91 182.295 1625.08 185.998C1529.32 193.756 1434.13 213.969 1325.5 249.606C1284.75 263.033 1244.93 277.762 1206.43 292.005C1159.66 309.305 1115.49 325.646 1069.75 339.878C1061.51 342.445 1053.35 344.908 1045.51 347.197C999.316 360.665 957.265 370.368 916.949 376.856C894.368 380.491 872.076 383.124 850.693 384.683C827.884 386.346 805.332 386.843 783.663 386.161C739.699 384.777 698.522 378.718 661.281 368.155C621.061 356.747 586.832 340.423 559.546 319.632C558.263 318.647 556.977 317.642 555.721 316.644C534.92 300.059 518.439 281.894 502.504 264.328C497.679 259.01 492.692 253.511 487.676 248.161C464.992 223.901 442.107 203.584 417.712 186.047C414.52 183.753 411.223 181.453 407.918 179.212C347.593 138.336 267.644 104.991 176.718 82.7813C68.4825 56.4478 -43.1822 47.1566 -137.707 56.6173C-238.918 66.9043 -337.542 111.352 -320.395 165.224L-320.758 165.254C-325.048 151.778 -322.535 138.502 -313.29 125.791C-304.848 114.183 -290.995 103.258 -272.114 93.3234C-254.56 84.0855 -233.499 76.1098 -209.522 69.6174C-186.717 63.4429 -161.908 58.8811 -137.78 56.4288C-88.0299 51.45 -33.9196 51.5928 23.045 56.8553C74.356 61.5942 126.11 70.259 176.872 82.6099C267.849 104.835 347.846 138.199 408.207 179.098C411.516 181.341 414.813 183.641 418.008 185.937C442.414 203.482 465.311 223.81 488.006 248.08C493.022 253.43 498.009 258.928 502.834 264.248C518.765 281.808 535.239 299.966 556.028 316.541C557.281 317.539 558.564 318.544 559.846 319.527C612.289 359.483 691.784 383.078 783.685 385.972C861.487 388.419 947.071 375.684 1045.33 347.033C1053.17 344.745 1061.32 342.283 1069.56 339.716C1115.29 325.488 1159.46 309.148 1206.22 291.851C1244.73 277.606 1284.55 262.875 1325.3 249.447C1433.98 213.793 1529.21 193.573 1625.02 185.809C1655.14 183.321 1680.08 182.525 1703.52 183.307C1733.47 184.307 1759.87 187.886 1784.23 194.251C1831.9 206.762 1871.47 228.181 1909.74 248.894C1920.25 254.583 1930.18 259.958 1940.24 265.129C2039.33 316.086 2139.66 371.072 2246.96 433.23L2246.7 433.358Z" fill="#FFE492"/>
<path d="M2242.81 431.564C2136.53 368.732 2037.97 313.108 1941.51 261.511C1931.53 256.173 1921.67 250.581 1911.23 244.658C1874.02 223.56 1835.54 201.743 1788.31 189.514C1731.53 174.874 1670.22 179.651 1629.04 184.518C1517.27 197.564 1417.11 227.894 1333.87 255.845C1303.96 265.932 1274.12 276.617 1245.25 286.95C1187.36 307.678 1132.68 327.256 1075.28 343.288C1066.83 345.647 1058.44 347.907 1050.31 350.007C1003.22 362.152 959.904 370.583 917.899 375.776C870.282 381.665 824.705 383.147 782.426 380.176C738.992 377.124 698.307 369.539 661.506 357.63C622.905 345.14 589.552 328.178 562.365 307.214C561.097 306.229 559.818 305.222 558.569 304.221C538.285 287.94 521.599 270.273 505.459 253.187C500.171 247.588 494.701 241.8 489.205 236.166C465.297 211.601 442.591 192.035 417.753 174.583C414.518 172.31 411.18 170.033 407.827 167.811C346.722 127.324 266.172 94.4615 174.887 72.7775C65.9335 46.9962 -46.0391 38.3581 -140.402 48.4566C-241.976 59.4709 -338.586 103.315 -324.435 157.625L-324.798 157.65C-328.308 144.175 -325.271 130.912 -315.773 118.23C-307.068 106.611 -293.133 95.6743 -274.352 85.7281C-256.838 76.4521 -235.887 68.4175 -212.078 61.8432C-189.409 55.583 -164.647 50.8898 -140.476 48.2681C-90.7805 42.9504 -36.6152 42.7562 20.5179 47.6893C71.9534 52.1293 123.942 60.5123 175.041 72.6043C266.381 94.2997 346.975 127.181 408.109 167.693C411.462 169.917 414.803 172.196 418.042 174.469C442.895 191.928 465.609 211.506 489.527 236.08C495.023 241.714 500.494 247.504 505.781 253.104C521.917 270.184 538.6 287.845 558.869 304.118C560.119 305.119 561.394 306.125 562.661 307.109C615.511 347.861 693.573 373.743 782.47 379.988C862.199 385.589 949.754 375.725 1050.14 349.835C1058.27 347.737 1066.67 345.479 1075.1 343.12C1132.49 327.093 1187.16 307.518 1245.05 286.792C1273.91 276.459 1303.75 265.772 1333.67 255.683C1389.64 236.89 1436.2 223.004 1480.2 211.986C1531.98 199.016 1580.64 189.971 1628.95 184.331C1658.41 180.851 1684.08 179.274 1707.43 179.514C1737.51 179.823 1764.02 183.037 1788.47 189.343C1835.77 201.587 1874.26 223.417 1911.49 244.528C1921.94 250.45 1931.8 256.041 1941.77 261.376C2038.24 312.975 2136.8 368.602 2243.09 431.436L2242.81 431.564Z" fill="#FFE492"/>
<path d="M2238.93 429.769C2133.67 366.257 2036.88 309.992 1943.04 257.755C1933.2 252.278 1923.46 246.492 1913.15 240.365C1876.92 218.843 1839.47 196.587 1792.56 184.606C1735.16 170.001 1674.01 176.716 1633 183.039C1531.74 198.52 1441.41 227.997 1342.25 262.083C1324.36 268.254 1306.27 274.622 1288.78 280.783C1221.49 304.476 1151.92 328.974 1080.8 346.696C1072.16 348.851 1063.51 350.909 1055.1 352.813C1007.69 363.536 961.846 370.897 918.841 374.692C870.124 378.991 823.811 378.821 781.176 374.191C738.351 369.539 698.16 360.425 661.718 347.102C624.84 333.618 592.355 316.02 565.167 294.796C563.911 293.81 562.643 292.801 561.401 291.8C541.729 275.9 524.937 258.808 508.698 242.28C502.846 236.325 496.797 230.167 490.718 224.175C465.876 199.636 442.698 180.236 417.775 163.124C414.503 160.877 411.117 158.619 407.717 156.414C345.85 116.308 264.707 83.9292 173.055 62.7746C63.3869 37.5454 -48.8897 29.5622 -143.099 40.2966C-241.449 51.6251 -339.842 93.9307 -328.48 150.025L-328.843 150.044C-331.573 136.569 -328.011 123.322 -318.261 110.668C-309.296 99.0351 -295.277 88.0894 -276.598 78.1317C-242.134 59.7625 -193.505 45.9037 -143.18 40.1081C-93.5432 34.4534 -39.3193 33.9203 17.986 38.5241C69.5461 42.667 121.766 50.7664 173.201 62.5994C264.905 83.7655 346.096 116.165 408.003 156.29C411.407 158.497 414.792 160.755 418.068 163.004C443.002 180.126 466.191 199.533 491.041 224.082C497.119 230.076 503.172 236.233 509.024 242.189C525.259 258.713 542.047 275.801 561.709 291.693C562.947 292.694 564.215 293.702 565.472 294.688C619.864 337.15 694.478 364.576 781.246 374.002C861.591 382.73 953.675 375.543 1054.95 352.638C1063.35 350.734 1071.99 348.678 1080.63 346.525C1151.73 328.808 1221.29 304.314 1288.56 280.625C1306.06 274.464 1324.15 268.096 1342.04 261.925C1385.44 247.004 1435.95 229.889 1486.08 215.6C1538.52 200.654 1586.54 189.944 1632.89 182.858C1662.07 178.359 1687.74 176.025 1711.35 175.724C1741.12 175.343 1768.49 178.275 1792.71 184.436C1813.72 189.804 1834.87 197.813 1857.37 208.925C1877.23 218.736 1895.63 229.668 1913.42 240.239C1923.72 246.364 1933.46 252.15 1943.3 257.626C2037.15 309.864 2133.94 366.131 2239.2 429.645L2238.93 429.769Z" fill="#FFE492"/>
<path d="M2235.04 427.975C2130.82 363.778 2035.8 306.871 1944.57 254.002C1934.9 248.405 1925.33 242.443 1915.2 236.134C1879.92 214.164 1843.44 191.446 1796.8 179.701C1753.22 168.759 1700.93 169.368 1636.96 181.563C1547.51 198.518 1467.56 226.877 1382.9 256.904C1372.36 260.643 1361.47 264.508 1350.62 268.326C1346.37 269.824 1342.12 271.326 1337.88 272.827C1257.22 301.327 1173.81 330.798 1086.32 350.107C1077.47 352.061 1068.59 353.917 1059.9 355.623C1011.45 365.13 964.307 371.18 919.797 373.606C869.955 376.321 822.898 374.505 779.941 368.206C737.783 362.024 698.087 351.381 661.956 336.572C626.935 322.219 595.322 303.986 567.992 282.379C566.746 281.39 565.49 280.379 564.255 279.376C545.33 263.975 528.593 247.573 512.401 231.711C505.847 225.287 499.064 218.644 492.253 212.178C466.451 187.656 442.803 168.424 417.822 151.658C414.502 149.43 411.077 147.195 407.632 145.011C344.981 105.293 263.237 73.3963 171.226 52.7709C60.8473 28.0958 -51.7408 20.7656 -145.793 32.136C-242.336 43.9042 -340.59 86.5563 -332.519 142.426L-332.885 142.441C-334.831 128.965 -330.749 115.732 -320.746 103.111C-311.516 91.4647 -297.417 80.5056 -278.837 70.5404C-244.52 52.1331 -196.059 38.0686 -145.877 31.9513C-96.2953 25.9577 -42.0165 25.0857 15.4574 29.3619C67.1421 33.2041 119.6 41.0217 171.373 52.5957C263.435 73.2344 345.23 105.148 407.907 144.887C411.351 147.071 414.785 149.31 418.104 151.538C443.096 168.313 466.759 187.551 492.568 212.083C499.383 218.549 506.162 225.194 512.72 231.618C528.904 247.476 545.642 263.874 564.559 279.269C565.794 280.273 567.047 281.282 568.293 282.27C623.865 326.205 697.083 355.855 780.036 368.018C861.924 380.024 956.038 375.792 1059.77 355.44C1068.45 353.734 1077.33 351.88 1086.17 349.929C1173.64 330.626 1257.03 301.161 1337.67 272.665C1341.92 271.162 1346.16 269.662 1350.41 268.164C1361.26 264.346 1372.15 260.481 1382.69 256.744C1467.37 226.711 1547.35 198.344 1636.83 181.382C1665.73 175.872 1691.39 172.782 1715.27 171.931C1745.16 170.867 1772.64 173.424 1796.96 179.528C1817.85 184.788 1838.73 192.834 1860.81 204.127C1880.28 214.09 1898.18 225.234 1915.48 236.01C1925.62 242.318 1935.18 248.277 1944.84 253.873C2036.08 306.743 2131.1 363.652 2235.32 427.851L2235.04 427.975Z" fill="#FFE492"/>
<path d="M2231.16 426.182C2136.03 366.36 2040.12 307.166 1946.09 250.248C1936.52 244.487 1927.03 238.297 1916.99 231.746C1884.33 210.433 1847.3 186.278 1801.05 174.795C1756.95 163.872 1704.58 165.603 1640.92 180.084C1565.23 197.246 1498.24 222.481 1427.33 249.197C1405.12 257.563 1382.15 266.216 1358.99 274.563C1318.56 289.165 1274.82 304.615 1228.97 318.687C1179.87 333.759 1135.01 345.15 1091.83 353.516C1082.76 355.273 1073.63 356.928 1064.68 358.43C1015.2 366.737 966.785 371.464 920.768 372.481C869.827 373.604 822.026 370.155 778.688 362.219C698.659 347.383 628.713 316.343 570.795 269.96C569.561 268.97 568.315 267.957 567.087 266.953C549.123 252.232 532.678 236.702 516.777 221.681C509.291 214.612 501.553 207.301 493.767 200.186C466.983 175.669 442.859 156.607 417.848 140.196C414.481 137.988 411.011 135.774 407.526 133.613C344.113 94.2772 261.768 62.866 169.398 42.7679C58.3047 18.645 -54.5875 11.9717 -148.485 23.976C-245.615 36.464 -341.407 78.5506 -336.56 134.827L-336.926 134.835C-338.088 121.355 -333.478 108.138 -323.23 95.549C-313.733 83.8874 -299.553 72.9169 -281.079 62.944C-263.675 53.5481 -243.047 45.3326 -219.769 38.5241C-197.169 31.9155 -173.218 26.9576 -148.577 23.7895C-99.0504 17.4589 -44.713 16.2479 12.9295 20.1948C64.7387 23.7419 117.427 31.2758 169.537 42.5909C261.962 62.7003 344.355 94.1306 407.805 133.485C411.289 135.648 414.766 137.864 418.134 140.073C443.155 156.492 467.29 175.562 494.085 200.087C501.871 207.204 509.61 214.515 517.095 221.586C532.997 236.604 549.438 252.133 567.395 266.849C568.619 267.854 569.868 268.865 571.099 269.855C628.973 316.203 698.857 347.218 778.809 362.038C861.165 377.117 959.98 375.807 1064.57 358.247C1073.51 356.745 1082.64 355.092 1091.7 353.337C1188.25 334.635 1276.58 304.09 1358.78 274.405C1381.94 266.058 1404.9 257.407 1427.11 249.041C1498.04 222.319 1565.04 197.079 1640.77 179.909C1704.52 165.405 1757 163.674 1801.2 174.622C1821.92 179.764 1842.49 187.825 1864.09 199.262C1883.13 209.348 1900.49 220.674 1917.28 231.626C1927.32 238.177 1936.8 244.365 1946.37 250.122C2040.4 307.043 2136.31 366.236 2231.44 426.06L2231.16 426.182Z" fill="#FFE492"/>
<path d="M2227.27 424.388C2133.6 364.235 2039.51 304.383 1947.62 246.494C1938.35 240.669 1929.15 234.371 1919.4 227.704C1887.54 205.894 1851.43 181.173 1805.29 169.885C1760.67 158.981 1708.2 161.833 1644.87 178.601C1578.53 196.144 1517.57 220.914 1458.63 244.871C1429.07 256.883 1398.5 269.305 1367.36 280.799C1318.2 298.959 1276.84 312.812 1237.2 324.397C1188.31 338.682 1142.56 349.322 1097.35 356.922C1088.07 358.483 1078.69 359.934 1069.48 361.235C1021.46 368.007 974.314 371.434 929.209 371.436C926.703 371.436 924.212 371.424 921.72 371.404C869.574 370.962 821.033 365.855 777.446 356.229C756.407 351.557 735.804 345.626 716.212 338.601C697.797 331.998 679.701 324.22 662.425 315.485C631.343 299.77 602.287 280.814 573.605 257.538C572.374 256.537 571.146 255.533 569.926 254.526C553.284 240.793 537.54 226.437 522.316 212.554C513.526 204.54 504.439 196.252 495.287 188.185C467.107 163.331 443.235 144.993 417.877 128.727C414.466 126.54 410.952 124.346 407.423 122.206C343.241 83.2611 260.298 52.3335 167.569 32.7628C55.7651 9.19396 -57.4349 3.1756 -151.179 15.814C-246.487 28.6998 -342.155 71.1063 -340.598 127.225L-340.964 127.227C-341.69 101.088 -321.754 76.2317 -283.315 55.3474C-265.94 45.9077 -245.421 37.6331 -222.323 30.7485C-199.848 24.0504 -175.944 18.9631 -151.271 15.6274C-101.803 8.95787 -47.4065 7.40997 10.4045 11.0275C62.3384 14.2775 115.261 21.5296 167.705 32.5839C260.492 52.1678 343.482 83.1145 407.705 122.082C411.234 124.224 414.755 126.42 418.166 128.607C443.536 144.882 467.418 163.227 495.605 188.09C504.758 196.159 513.849 204.447 522.635 212.461C537.859 226.342 553.6 240.696 570.238 254.425C571.458 255.433 572.682 256.436 573.913 257.436C634.86 306.896 701.483 339.155 777.589 356.054C882.999 379.335 994.447 371.622 1069.38 361.052C1078.59 359.751 1087.96 358.303 1097.24 356.741C1201.22 339.259 1296.1 306.89 1367.15 280.645C1398.29 269.154 1428.85 256.733 1458.4 244.723C1517.37 220.762 1578.33 195.984 1644.71 178.433C1673.04 170.93 1698.69 166.322 1723.1 164.35C1753.22 161.917 1780.92 163.722 1805.44 169.715C1826.1 174.77 1846.48 182.896 1867.72 194.556C1886.44 204.83 1903.35 216.4 1919.7 227.591C1929.44 234.257 1938.63 240.553 1947.9 246.374C2039.79 304.263 2133.88 364.115 2227.56 424.268L2227.27 424.388Z" fill="#FFE492"/>
<path d="M2223.39 422.595L1949.15 242.741C1940.19 236.867 1931.3 230.476 1921.88 223.711C1890.81 201.385 1855.58 176.082 1809.53 164.98C1765 154.246 1710.94 158.331 1648.83 177.125C1589.13 195.192 1534.68 219.218 1482.02 242.453C1447.7 257.599 1412.2 273.259 1375.74 287.042C1266.13 328.468 1170.34 352.935 1074.28 364.045C1034.43 368.652 995.114 370.971 956.99 370.971C945.434 370.971 933.995 370.758 922.676 370.332C869.299 368.321 820.018 361.562 776.207 350.245C735.602 339.754 698.457 324.945 662.659 304.969C634.072 289.018 606.669 270.001 576.423 245.123C560.458 231.993 545 218.351 530.051 205.159C496.217 175.305 461.233 144.435 417.921 117.265C351.485 75.5938 264.281 42.9145 165.737 22.7594C53.2257 -0.253555 -60.282 -5.61886 -153.872 7.65352C-244.483 20.5032 -342.829 61.0229 -344.639 119.626L-345.006 119.622C-344.196 93.428 -323.637 68.5758 -285.553 47.7524C-251.119 28.9243 -204.388 14.6181 -153.967 7.46883C-104.554 0.462328 -50.0997 -1.42448 7.87616 1.86363C59.9346 4.81474 113.092 11.787 165.873 22.5823C214.633 32.5552 260.943 45.6828 303.519 61.6017C346.45 77.6538 385.036 96.3391 418.199 117.14C461.53 144.318 496.525 175.197 530.366 205.058C545.315 218.249 560.773 231.888 576.734 245.016C620.863 281.317 683.438 326.061 776.372 350.07C882.951 377.603 997.155 372.763 1074.19 363.854C1170.21 352.752 1265.95 328.294 1375.52 286.884C1411.97 273.107 1447.46 257.447 1481.78 242.305C1534.45 219.065 1588.92 195.034 1648.65 176.958C1710.86 158.132 1765.04 154.042 1809.69 164.805C1830.31 169.776 1850.49 177.973 1871.4 189.866C1889.8 200.336 1906.26 212.162 1922.18 223.597C1931.59 230.361 1940.49 236.749 1949.44 242.621L2223.68 422.475L2223.39 422.595Z" fill="#FFE492"/>
<path d="M2221.18 408.768C2151.35 358.691 2091.43 318.055 2032.62 280.888C2004.08 262.833 1974.92 245.062 1945.97 228.067C1937.21 222.927 1928.54 217.458 1919.35 211.669C1896.27 197.117 1872.4 182.07 1844.93 170.903C1830.18 164.896 1815.98 160.595 1801.52 157.755C1757.14 148.949 1705.07 154.771 1646.75 175.061C1616.57 185.546 1589.09 197.478 1566.19 207.767C1541.95 218.66 1518.03 230.672 1494.9 242.288C1461.66 258.985 1427.28 276.25 1390.33 291.078C1367.84 300.128 1345.05 308.214 1322.58 315.113C1277.62 328.917 1229.36 340.291 1179.15 348.92C1148.13 354.192 1116.95 358.177 1086.5 360.762C1060.26 362.982 1033.96 364.264 1008.35 364.57C970.012 365.031 932.661 363.274 897.333 359.342C859.769 355.161 824.221 348.488 791.677 339.505C762.658 331.495 735.247 321.41 707.881 308.671C656.885 284.951 616.21 257.525 586.473 236.281C571.865 225.796 557.601 215.103 543.806 204.763C504.084 174.983 466.564 146.856 419.614 121.803C381.321 101.503 337.631 83.9845 289.746 69.7316C252.948 58.7783 212.926 49.8202 170.793 43.105C160.758 41.5076 150.531 40.0187 140.408 38.6841C96.8206 32.9475 47.752 29.2119 -5.43133 27.5803C-59.0506 25.8972 -105.441 27.3537 -147.244 32.0374C-170.877 34.6648 -193.773 38.7869 -215.307 44.2874C-291.328 63.7076 -340.143 96.3087 -345.889 131.497L-346.347 131.476C-344.815 122.096 -340.319 112.856 -332.988 104.01C-326.022 95.6081 -316.456 87.5049 -304.555 79.9253C-282.069 65.6077 -251.276 53.2092 -215.508 44.0722C-193.942 38.5622 -171.009 34.4345 -147.339 31.8032C-105.492 27.1157 -59.0653 25.6573 -5.40203 27.3423C47.8106 28.974 96.9048 32.7133 140.521 38.4537C150.656 39.7902 160.886 41.2791 170.929 42.8784C213.095 49.5974 253.15 58.5631 289.977 69.526C337.895 83.7884 381.621 101.322 419.932 121.635C466.913 146.704 504.439 174.839 544.176 204.626C557.967 214.966 572.231 225.657 586.836 236.14C616.558 257.375 657.214 284.787 708.181 308.492C735.518 321.218 762.9 331.293 791.886 339.294C855.577 356.873 928.4 365.298 1008.33 364.332C1033.93 364.026 1060.2 362.744 1086.43 360.526C1116.86 357.941 1148.01 353.96 1179 348.691C1229.19 340.068 1277.41 328.702 1322.34 314.906C1344.8 308.012 1367.58 299.93 1390.04 290.888C1426.98 276.067 1461.35 258.806 1494.58 242.114C1517.71 230.497 1541.63 218.481 1565.89 207.585C1588.8 197.29 1616.29 185.354 1646.5 174.862C1672.46 165.827 1697.6 159.586 1721.22 156.31C1750.24 152.285 1777.31 152.696 1801.68 157.532C1816.19 160.382 1830.42 164.695 1845.21 170.715C1872.72 181.899 1896.6 196.955 1919.7 211.516C1928.89 217.304 1937.56 222.772 1946.31 227.909C1975.27 244.906 2004.43 262.679 2032.98 280.738C2091.79 317.908 2151.71 358.548 2221.55 408.629L2221.18 408.768Z" fill="#FFE492"/>
<path d="M2218.97 394.938C2154.22 344.013 2093.46 301.399 2033.19 264.663C2003.81 246.718 1973.39 229.468 1942.79 213.393C1934.67 209.129 1926.66 204.696 1918.17 200.005C1892.76 185.956 1866.48 171.429 1837.05 161.378C1822.19 156.281 1807.95 152.732 1793.51 150.527C1738.22 142.081 1682.06 158.082 1644.67 172.992C1618.19 183.524 1594 195.434 1569.49 207.727C1548.05 218.488 1527.87 230.064 1506.51 242.318C1474.8 260.508 1442.02 279.317 1404.92 295.111C1382.9 304.533 1359.92 312.68 1336.62 319.325C1293.22 331.704 1245.7 341.317 1191.33 348.716C1160.9 352.855 1129.75 355.804 1098.72 357.478C1072.54 358.874 1046.41 359.372 1021.04 358.956C983.313 358.342 946.431 355.586 911.417 350.763C874.645 345.696 839.559 338.294 807.136 328.761C778.728 320.41 751.3 310.049 723.281 297.087C672.395 273.579 628.804 247.518 596.517 227.439C584.565 220.006 572.803 212.527 561.426 205.292C516.121 176.482 473.328 149.267 421.307 126.34C382.428 109.204 338.778 94.7151 291.578 83.2762C255.865 74.6209 218.012 68.136 175.861 63.4504C166.133 62.3709 156.237 61.398 146.45 60.5583C103.464 56.8895 57.5864 55.5015 2.08012 54.0659C-37.931 52.9788 -90.3082 52.2629 -140.626 56.4173C-164.457 58.3479 -187.493 61.7007 -209.1 66.3787C-285.172 82.8535 -336.776 111.633 -347.145 143.368L-347.688 143.321C-344.939 134.905 -339.37 126.652 -331.144 118.787C-323.303 111.293 -313 104.107 -300.524 97.4244C-276.814 84.7289 -245.274 73.9012 -209.312 66.114C-187.665 61.4265 -164.585 58.068 -140.714 56.1336C-90.3485 51.9735 -37.931 52.6913 2.10575 53.7784C57.6304 55.214 103.522 56.602 146.538 60.2728C156.332 61.1143 166.236 62.0872 175.975 63.1668C218.166 67.8581 256.056 74.3486 291.809 83.0134C339.057 94.4637 382.743 108.964 421.662 126.117C473.72 149.061 516.531 176.284 561.851 205.106C573.224 212.339 584.986 219.817 596.938 227.248C629.218 247.32 672.791 273.371 723.647 296.868C751.633 309.817 779.032 320.166 807.407 328.508C871.161 347.252 943.049 357.398 1021.06 358.666C1046.4 359.081 1072.51 358.584 1098.66 357.189C1129.66 355.517 1160.79 352.572 1191.19 348.434C1245.51 341.043 1293 331.438 1336.36 319.07C1359.63 312.433 1382.58 304.297 1404.57 294.884C1441.64 279.104 1474.41 260.303 1506.11 242.122C1527.48 229.863 1547.66 218.285 1569.12 207.518C1593.63 195.217 1617.83 183.304 1644.34 172.76C1668.58 163.093 1692.48 156.14 1715.39 152.088C1743.17 147.176 1769.51 146.557 1793.67 150.247C1808.16 152.462 1822.45 156.022 1837.36 161.134C1866.84 171.204 1893.14 185.744 1918.58 199.805C1927.06 204.494 1935.08 208.925 1943.19 213.188C1973.8 229.269 2004.22 246.524 2033.62 264.474C2093.89 301.22 2154.68 343.842 2219.43 394.778L2218.97 394.938Z" fill="#FFE492"/>
<path d="M2216.76 381.108C2156.16 328.645 2096.31 285.249 2033.77 248.44C2003.53 230.605 1971.85 213.879 1939.62 198.722C1932.73 195.482 1925.63 192.043 1918.77 188.719C1890.45 174.984 1861.16 160.782 1829.18 151.855C1814.17 147.635 1799.88 144.837 1785.51 143.3C1730.33 137.4 1677.34 155.065 1642.59 170.921C1619.05 181.625 1597.52 193.757 1576.7 205.491L1572.8 207.688C1553.9 218.333 1536.17 230.008 1517.4 242.37C1487.5 262.055 1456.59 282.408 1419.51 299.144C1397.93 308.953 1374.77 317.161 1350.67 323.539C1308.64 334.66 1261.88 342.595 1203.5 348.513C1173.31 351.572 1142.17 353.484 1110.93 354.192C1084.81 354.761 1058.84 354.476 1033.73 353.339C957.701 349.914 886.663 338.03 822.587 318.017C794.887 309.366 767.44 298.732 738.681 285.504C690.012 263.165 646.725 240.203 606.563 218.599C601.177 215.703 595.85 212.826 590.563 209.972C535.709 180.368 483.899 152.405 423.011 130.883C383.26 116.832 339.654 105.374 293.41 96.825C259.46 90.5496 222.665 86.2886 180.932 83.7982C171.527 83.2404 161.96 82.7815 152.496 82.435C128.687 81.5782 103.434 81.4392 76.6981 81.2926C55.2233 81.1746 33.0193 81.0527 9.58787 80.5558C-35.6665 79.5144 -86.9555 78.3358 -134.016 80.8033C-158.298 82.0771 -181.473 84.6588 -202.9 88.4781C-278.943 102.034 -333.339 126.997 -348.409 155.253L-349.028 155.164C-345.057 147.714 -338.417 140.446 -329.298 133.563C-320.577 126.982 -309.541 120.71 -296.497 114.924C-271.549 103.858 -239.254 94.605 -203.112 88.1621C-181.637 84.3332 -158.415 81.7458 -134.086 80.4701C-86.9774 78.0007 -35.6628 79.1812 9.60985 80.2226C33.0266 80.7176 55.2306 80.8414 76.6981 80.9594C103.445 81.1061 128.705 81.245 152.536 82.1037C162.008 82.4521 171.585 82.911 180.998 83.4688C222.783 85.9611 259.621 90.2278 293.619 96.5127C339.918 105.071 383.571 116.542 423.366 130.609C484.31 152.15 536.145 180.126 591.021 209.744C596.308 212.598 601.639 215.473 607.021 218.371C647.175 239.971 690.448 262.927 739.102 285.258C767.832 298.471 795.25 309.095 822.917 317.736C886.909 337.723 957.855 349.59 1033.78 353.012C1058.87 354.146 1084.81 354.432 1110.9 353.863C1142.1 353.155 1173.22 351.245 1203.37 348.189C1261.69 342.277 1308.41 334.351 1350.37 323.246C1374.43 316.881 1397.54 308.688 1419.08 298.896C1456.12 282.181 1487.01 261.84 1516.89 242.166C1535.67 229.798 1553.41 218.117 1572.33 207.465L1576.22 205.268C1597.05 193.528 1618.59 181.389 1642.17 170.673C1677.02 154.766 1730.2 137.05 1785.63 142.977C1800.07 144.521 1814.41 147.329 1829.48 151.565C1861.53 160.512 1890.85 174.729 1919.21 188.479C1926.06 191.803 1933.16 195.242 1940.04 198.48C1972.29 213.645 2003.98 230.381 2034.24 248.225C2096.81 285.049 2156.68 328.46 2217.3 380.941L2216.76 381.108Z" fill="#FFE492"/>
<path d="M2214.55 367.276C2158.91 314.021 2098.28 268.579 2034.34 232.218C2003.26 214.496 1970.32 198.291 1936.45 184.054C1931.56 181.997 1926.55 179.863 1921.7 177.799C1889.69 164.165 1856.59 150.065 1821.33 142.335C1806.19 138.982 1791.86 136.935 1777.52 136.074C1722.5 132.777 1672.65 152.077 1640.52 168.849C1620.57 179.21 1602.57 190.733 1585.15 201.877C1582.14 203.805 1579.13 205.73 1576.11 207.647C1559.55 218.18 1544.06 229.946 1527.66 242.402C1499.79 263.578 1470.96 285.473 1434.1 303.18C1412.45 313.577 1389.76 321.615 1364.71 327.758C1312.32 340.603 1259.97 345.358 1215.67 348.316C1185.7 350.315 1154.57 351.191 1123.14 350.913C1097.1 350.656 1071.29 349.584 1046.42 347.73C972.673 342.245 902.565 328.635 838.045 307.279C811.199 298.395 783.737 287.485 754.084 273.927C724.131 260.265 696.218 247.118 669.222 234.403C650.876 225.761 633.545 217.599 616.621 209.768C552.647 180.166 494.049 154.139 424.729 135.431C384.124 124.474 340.563 116.043 295.253 110.375C262.779 106.312 228.066 104.334 186.014 104.145C176.942 104.111 167.701 104.166 158.552 104.311C144.655 104.545 130.277 105.034 115.06 105.554C85.8582 106.55 52.7537 107.679 17.0955 107.047C3.5166 106.805 -10.3371 106.464 -23.7364 106.133C-58.2002 105.282 -93.8365 104.402 -127.41 105.189C-152.065 105.767 -175.383 107.58 -196.708 110.577C-272.622 121.248 -329.807 142.396 -349.681 167.145L-350.358 166.998C-345.155 160.517 -337.446 154.238 -327.447 148.334C-317.844 142.664 -306.075 137.308 -292.474 132.417C-266.265 122.992 -233.22 115.314 -196.905 110.209C-175.53 107.205 -152.16 105.387 -127.45 104.808C-93.8402 104.02 -58.1892 104.901 -23.7071 105.752C-10.3114 106.084 3.54225 106.424 17.1175 106.666C52.7428 107.298 85.8215 106.171 115.009 105.175C130.233 104.656 144.614 104.166 158.527 103.932C167.687 103.787 176.935 103.732 186.018 103.766C228.129 103.953 262.893 105.937 295.422 110.006C340.786 115.681 384.406 124.121 425.062 135.094C456.375 143.544 488.106 154.249 522.067 167.821C552.472 179.97 582.047 193.263 617.105 209.485C634.029 217.318 651.36 225.48 669.709 234.122C696.702 246.834 724.615 259.981 754.561 273.642C784.184 287.186 811.617 298.085 838.43 306.959C902.862 328.287 972.87 341.877 1046.51 347.355C1071.36 349.207 1097.14 350.277 1123.14 350.534C1154.54 350.812 1185.64 349.938 1215.56 347.939C1259.81 344.986 1312.1 340.238 1364.39 327.415C1389.37 321.29 1412.01 313.272 1433.6 302.902C1470.39 285.225 1499.2 263.347 1527.05 242.189C1543.46 229.725 1558.95 217.953 1575.54 207.409C1578.55 205.492 1581.56 203.567 1584.57 201.64C1602 190.489 1620.02 178.959 1639.99 168.584C1660.9 157.673 1682.34 149.278 1703.73 143.635C1729.07 136.95 1753.92 134.281 1777.59 135.701C1792 136.566 1806.4 138.622 1821.6 141.988C1856.95 149.739 1890.1 163.857 1922.15 177.508C1927 179.572 1932.01 181.706 1936.89 183.761C1970.79 198.01 2003.75 214.229 2034.86 231.965C2068.81 251.272 2102.06 273.271 2133.68 297.348C2161.63 318.628 2189.05 342.096 2215.17 367.097L2214.55 367.276Z" fill="#FFE492"/>
<path d="M2212.33 353.44C2160.84 298.657 2101.15 252.415 2034.92 215.994C2002.98 198.385 1968.79 182.704 1933.29 169.384C1931.6 168.75 1929.91 168.116 1928.22 167.48C1891.3 153.611 1853.13 139.271 1813.49 132.815C1798.13 130.313 1783.75 129.016 1769.55 128.849C1714.75 128.205 1668.02 149.118 1638.47 166.773C1621.08 177.102 1605.64 188.423 1590.71 199.371C1587.02 202.078 1583.2 204.877 1579.44 207.603C1565.09 217.987 1551.75 229.794 1537.62 242.295C1511.94 265.034 1485.38 288.546 1448.71 307.212C1427.49 318.011 1404.61 326.11 1378.76 331.975C1327.84 343.526 1276.13 346.559 1227.84 348.116C1198.06 349.076 1166.94 348.912 1135.34 347.631C1109.4 346.545 1083.75 344.689 1059.11 342.115C987.871 334.69 918.694 319.355 853.507 296.536C827.401 287.399 800.705 276.536 769.499 262.347C710.189 235.456 666.148 216.516 626.701 200.936C548.243 169.949 488.362 151.719 426.48 139.979C385.051 132.12 341.534 126.718 297.129 123.923C266.322 121.985 233.628 122.158 191.125 124.491C182.416 124.974 173.505 125.544 164.638 126.185C156.262 126.8 147.754 127.505 138.745 128.249C105.479 131 67.7725 134.119 24.6177 133.536C1.8714 133.23 -21.3622 132.39 -43.83 131.579C-69.3645 130.658 -95.7675 129.704 -120.8 129.574C-145.899 129.445 -169.359 130.488 -190.512 132.678C-266.174 140.505 -326.154 157.84 -350.956 179.048L-351.659 178.825C-345.218 173.315 -336.439 168.024 -325.568 163.099C-315.074 158.343 -302.58 153.905 -288.429 149.904C-260.942 142.133 -227.137 136.029 -190.673 132.257C-169.462 130.063 -145.95 129.016 -120.793 129.146C-95.7382 129.275 -69.3206 130.229 -43.775 131.153C-21.3145 131.964 1.90802 132.803 24.6359 133.11C67.7139 133.69 105.38 130.576 138.609 127.828C147.623 127.082 156.138 126.379 164.517 125.762C173.395 125.121 182.314 124.552 191.03 124.066C233.599 121.732 266.348 121.557 297.221 123.501C341.688 126.299 385.267 131.708 426.755 139.579C488.721 151.334 548.664 169.584 627.192 200.597C666.653 216.183 710.71 235.129 770.034 262.028C801.218 276.204 827.885 287.057 853.962 296.184C919.061 318.971 988.135 334.284 1059.26 341.698C1083.87 344.268 1109.49 346.121 1135.4 347.206C1166.96 348.486 1198.04 348.649 1227.78 347.692C1276 346.136 1327.62 343.111 1378.43 331.586C1404.18 325.745 1426.98 317.672 1448.12 306.911C1484.71 288.285 1511.25 264.798 1536.91 242.084C1551.04 229.575 1564.39 217.759 1578.76 207.36C1582.53 204.635 1586.35 201.836 1590.03 199.129C1604.97 188.172 1620.42 176.843 1637.84 166.497C1657.12 154.975 1677.34 145.86 1697.93 139.406C1722.05 131.846 1746.15 128.154 1769.56 128.426C1783.85 128.594 1798.29 129.898 1813.73 132.411C1853.5 138.89 1891.73 153.25 1928.7 167.139C1930.39 167.775 1932.08 168.411 1933.77 169.043C1969.31 182.378 2003.54 198.078 2035.51 215.707C2101.8 252.159 2161.54 298.439 2213.07 353.259L2212.33 353.44Z" fill="#FFE492"/>
<path d="M1246.07 347.919C1244.01 347.919 1241.99 347.917 1239.99 347.911C1210.37 347.846 1179.26 346.647 1147.54 344.343C1121.69 342.43 1096.2 339.789 1071.79 336.497C1036.91 331.802 1001.9 325.054 967.733 316.443C934.739 308.126 901.51 297.814 868.966 285.791C837.078 274.011 807.293 260.886 784.906 250.766C732.525 227.154 682.687 207.417 636.777 192.104C562.419 167.303 496.155 152.184 428.235 144.524C387.261 139.904 343.3 137.466 300.973 137.466C300.317 137.466 299.665 137.466 299.009 137.468C262.647 137.533 228.125 141.044 196.24 144.829C187.941 145.821 179.357 146.904 170.724 148.052C165.994 148.688 161.256 149.343 156.244 150.036C120.89 154.931 80.8164 160.478 32.1325 160.022C2.48324 159.744 -27.7999 158.149 -57.0865 156.605C-75.9965 155.607 -95.5477 154.577 -114.198 153.955C-139.835 153.1 -163.427 153.374 -184.327 154.773C-259.586 159.807 -322.362 173.333 -352.256 190.956L-352.945 190.642C-337.611 181.604 -314.546 173.778 -284.391 167.381C-255.592 161.273 -221.029 156.75 -184.444 154.303C-163.49 152.902 -139.835 152.624 -114.139 153.482C-95.4707 154.105 -75.9085 155.137 -56.9912 156.135C-27.723 157.679 2.54184 159.274 32.1508 159.55C80.7101 160.005 120.714 154.467 156.009 149.581C161.025 148.886 165.763 148.231 170.497 147.595C179.137 146.447 187.729 145.362 196.035 144.37C227.975 140.579 262.556 137.063 299.005 136.996C342.006 136.918 386.755 139.363 428.43 144.064C463.483 148.018 497.467 153.838 532.316 161.858C565.878 169.582 600.21 179.346 637.268 191.708C683.215 207.033 733.089 226.784 785.503 250.412C807.872 260.526 837.635 273.642 869.49 285.408C935.527 309.806 1003.67 326.84 1072.02 336.042C1096.4 339.33 1121.85 341.967 1147.67 343.878C1179.35 346.178 1210.41 347.378 1239.99 347.441C1286.28 347.54 1340.03 346.729 1392.46 335.752C1418.99 330.197 1441.95 322.073 1462.64 310.917C1498.98 291.326 1523.06 266.181 1546.36 241.861C1558.35 229.353 1569.67 217.537 1581.97 207.309C1585.92 204.032 1589.9 200.656 1593.74 197.391C1606.74 186.36 1620.18 174.955 1635.67 164.413C1653.36 152.285 1672.35 142.447 1692.11 135.174C1715.01 126.742 1738.36 122.024 1761.5 121.152C1775.79 120.613 1790.29 121.163 1805.83 122.835C1847.38 127.301 1888.57 140.279 1930.62 154.324C1967.28 166.57 2003.77 182.173 2036.14 199.447C2072.1 218.58 2105.89 241.026 2136.56 266.16C2163.88 288.552 2188.91 313.2 2210.95 339.421L2210.11 339.612C2162.78 283.301 2104.03 236.254 2035.49 199.781C2003.16 182.531 1966.73 166.951 1930.13 154.726C1888.15 140.705 1847.04 127.753 1805.64 123.301C1790.19 121.639 1775.77 121.093 1761.57 121.628C1719.04 123.233 1674.59 138.529 1636.4 164.702C1620.94 175.225 1607.51 186.621 1594.52 197.641C1590.68 200.908 1586.69 204.285 1582.75 207.562C1570.47 217.771 1559.15 229.577 1547.18 242.075C1535.75 254.007 1523.93 266.346 1510.37 278.208C1494.99 291.655 1479.6 302.462 1463.3 311.249C1442.52 322.453 1419.46 330.614 1392.8 336.196C1369.29 341.12 1344.02 344.374 1315.55 346.148C1291.43 347.643 1267.22 347.919 1246.07 347.919Z" fill="#FFE492"/>
<path d="M1304.82 348.872C1286.14 348.872 1268.19 348.293 1252.14 347.707C1222.62 346.629 1191.52 344.392 1159.73 341.057C1133.98 338.317 1108.66 334.893 1084.45 330.878C1018.18 319.906 952.74 301.641 884.41 275.045C854.61 263.448 826.518 250.97 800.306 239.184C748.555 215.985 696.929 197.174 646.853 183.271C573.206 162.825 504.301 151.955 430.002 149.065C387.667 147.418 343.025 148.09 300.896 151.007C265.633 153.448 232.39 159.339 201.356 165.161C193.591 166.625 185.333 168.224 176.814 169.913C174.685 170.338 172.538 170.77 170.362 171.206C134.619 178.388 94.1755 186.514 42.271 186.514C41.3953 186.514 40.5233 186.512 39.6403 186.506C4.52426 186.321 -31.3282 183.717 -66.0045 181.196C-79.7519 180.196 -93.9683 179.164 -107.609 178.329C-134.254 176.699 -157.33 176.217 -178.16 176.861C-253.921 179.202 -317.869 188.677 -353.601 202.859L-354.213 202.442C-336.549 195.432 -311.007 189.345 -280.357 184.84C-250.21 180.41 -214.892 177.47 -178.223 176.337C-157.334 175.692 -134.199 176.173 -107.496 177.807C-93.8401 178.643 -79.62 179.677 -65.869 180.674C-31.2256 183.191 4.59388 185.794 39.6439 185.979C92.6294 186.26 133.732 177.999 169.992 170.713C172.164 170.277 174.315 169.845 176.444 169.418C184.97 167.727 193.232 166.128 201.004 164.664C232.089 158.83 265.395 152.932 300.753 150.483C342.948 147.563 387.664 146.889 430.067 148.538C466.887 149.969 501.992 153.351 537.387 158.872C573.84 164.559 609.799 172.386 647.318 182.805C697.457 196.726 749.149 215.56 800.955 238.783C827.156 250.564 855.23 263.035 885.004 274.62C953.242 301.18 1018.58 319.418 1084.75 330.374C1108.92 334.381 1134.21 337.801 1159.92 340.537C1191.67 343.869 1222.72 346.104 1252.2 347.178C1301.8 348.986 1354.57 349.916 1406.48 339.907C1433.8 334.638 1456.91 326.463 1477.15 314.912C1513.19 294.336 1535.63 266.27 1555.42 241.507C1565.38 229.048 1574.79 217.279 1585.17 207.248C1588.92 203.628 1592.69 199.887 1596.33 196.269C1607.74 184.95 1619.53 173.247 1633.48 162.316C1649.63 149.583 1667.39 139.022 1686.28 130.926C1707.97 121.629 1730.56 115.887 1753.43 113.863C1767.73 112.597 1782.28 112.395 1797.92 113.24C1841.61 115.607 1886 127.301 1927.46 139.587C1965.75 150.931 2003.54 166.002 2036.77 183.172C2073.73 202.215 2107.78 224.886 2137.98 250.549C2164.98 273.499 2188.82 298.738 2208.83 325.568L2207.89 325.756C2165.36 268.726 2105.94 219.549 2036.06 183.542C2002.9 166.404 1965.18 151.361 1926.97 140.04C1885.6 127.783 1841.33 116.117 1797.82 113.76C1782.27 112.919 1767.81 113.12 1753.61 114.377C1711.38 118.115 1669.02 135.24 1634.33 162.602C1620.4 173.51 1608.62 185.202 1597.23 196.509C1593.59 200.129 1589.82 203.87 1586.07 207.493C1575.71 217.502 1566.31 229.259 1556.36 241.705C1536.53 266.506 1514.06 294.618 1477.89 315.262C1457.55 326.876 1434.3 335.097 1406.83 340.396C1383 344.992 1357.28 347.654 1328.21 348.528C1320.36 348.775 1312.53 348.872 1304.82 348.872Z" fill="#FFE492"/>
<path d="M1341.7 350.934C1341.43 350.934 1341.17 350.934 1340.9 350.934C1314.5 350.9 1288.58 349.221 1264.28 347.503C1234.81 345.42 1203.73 342.144 1171.92 337.768C1146.29 334.206 1121.13 329.997 1097.13 325.26C1033.5 312.718 970.818 293.35 899.865 264.301C874.312 253.843 849.166 242.581 824.844 231.692C821.803 230.329 818.758 228.968 815.713 227.606C763.695 204.413 710.277 186.525 656.947 174.443C583.92 157.899 510.269 151.083 431.786 153.606C388.752 154.99 344.15 158.773 302.801 164.546C270.177 169.102 241.106 176.411 206.489 185.493C199.472 187.342 191.979 189.337 182.914 191.774L182.409 191.911C164.92 196.645 145.098 202.008 122.865 206.086C97.33 210.77 72.5575 213.024 47.1549 212.997C7.54311 212.946 -32.8821 209.115 -71.9735 205.408C-81.5513 204.5 -91.4588 203.562 -101.022 202.712C-128.447 200.281 -151.662 199.053 -171.994 198.96C-246.857 198.617 -313.55 204.382 -354.968 214.774L-355.444 214.26C-335.157 209.169 -307.79 205.037 -276.305 202.311C-244.762 199.578 -208.686 198.223 -171.983 198.39C-151.593 198.484 -128.319 199.714 -100.835 202.151C-91.2646 203 -81.3571 203.939 -71.7757 204.847C-32.7318 208.548 7.64204 212.375 47.1585 212.426C47.3344 212.426 47.5139 212.426 47.6898 212.426C104.215 212.426 147.278 200.774 181.903 191.405L182.412 191.268C191.481 188.829 198.974 186.834 205.994 184.985C240.67 175.888 269.792 168.565 302.519 163.996C343.937 158.212 388.612 154.423 431.72 153.037C470.126 151.803 506.352 152.743 542.476 155.915C581.402 159.333 618.992 165.222 657.387 173.921C710.819 186.026 764.329 203.942 816.431 227.174C819.476 228.536 822.521 229.899 825.562 231.262C849.873 242.147 875.012 253.405 900.542 263.856C971.405 292.868 1033.99 312.21 1097.52 324.73C1121.48 329.462 1146.61 333.664 1172.2 337.222C1203.97 341.592 1235 344.863 1264.43 346.942C1317.15 350.67 1368.75 353.255 1420.53 344.086C1448.62 339.109 1471.9 330.882 1491.67 318.933C1527.39 297.348 1546.91 267.439 1564.13 241.048C1572.19 228.694 1579.8 217.022 1588.39 207.215C1591.7 203.442 1595.01 199.539 1598.22 195.763C1608.24 183.959 1618.61 171.754 1631.32 160.247C1645.95 146.902 1662.49 135.616 1680.46 126.701C1700.96 116.542 1722.79 109.779 1745.37 106.603C1759.37 104.635 1773.66 103.675 1789.01 103.675C1789.34 103.675 1789.68 103.675 1790.01 103.677C1837.74 103.806 1886.86 115.074 1924.32 124.875C1964.22 135.319 2003.33 149.857 2037.41 166.92C2075.37 185.876 2109.7 208.769 2139.42 234.965C2166.09 258.473 2188.74 284.304 2206.72 311.744L2205.68 311.928C2178.92 271.1 2127.86 212.874 2036.65 167.333C2002.65 150.308 1963.63 135.804 1923.82 125.386C1886.47 115.611 1837.51 104.376 1790.01 104.248C1774.37 104.201 1759.87 105.156 1745.66 107.155C1703.83 113.041 1663.56 131.996 1632.27 160.531C1619.59 172.011 1609.24 184.202 1599.22 195.993C1596.02 199.771 1592.7 203.676 1589.39 207.451C1580.83 217.234 1573.22 228.89 1565.17 241.231C1547.92 267.669 1528.37 297.635 1492.51 319.304C1472.6 331.333 1449.17 339.615 1420.88 344.625C1396.91 348.868 1371 350.934 1341.7 350.934Z" fill="#FFE492"/>
<path d="M1371.03 353.615C1365.34 353.615 1359.53 353.519 1353.58 353.329C1327.53 352.497 1302.22 350.001 1276.43 347.297C1246.53 344.163 1216.33 339.971 1184.11 334.48C1158.61 330.097 1133.61 325.105 1109.8 319.639C1049.39 305.793 989.41 285.412 915.32 253.555C896.919 245.644 878.526 237.347 860.737 229.321C851.053 224.954 841.043 220.436 831.124 216.024C778.487 192.674 723.285 175.714 667.049 165.612C592.746 152.263 516.381 149.819 433.581 158.139C389.837 162.535 345.275 169.429 304.718 178.075C272.137 185.021 243.756 194.774 213.707 205.101L211.63 205.815C206.936 207.434 202.191 209.075 197.387 210.735C194.621 211.693 191.836 212.656 189.026 213.627C171.505 219.714 152.58 226.064 130.878 230.951C105.681 236.625 80.7579 239.416 54.6774 239.485C11.2588 239.595 -33.0283 234.352 -75.8534 229.276C-81.9649 228.55 -88.289 227.802 -94.4263 227.092C-123.2 223.76 -145.884 221.843 -165.823 221.055C-239.404 218.147 -308.845 220.196 -356.345 226.677L-356.649 226.079C-309.024 219.581 -239.441 217.525 -165.732 220.438C-145.737 221.228 -122.995 223.151 -94.1662 226.488C-88.0253 227.2 -81.7011 227.949 -75.5859 228.674C-33.2847 233.687 10.4417 238.868 53.2851 238.868C53.7468 238.868 54.2085 238.868 54.6738 238.866C110.088 238.721 149.535 226.601 188.37 213.113C191.181 212.142 193.965 211.179 196.732 210.221C201.535 208.559 206.276 206.92 210.974 205.299L213.051 204.585C243.151 194.241 271.58 184.47 304.267 177.502C344.897 168.839 389.536 161.933 433.358 157.53C516.366 149.188 592.937 151.641 667.441 165.025C723.816 175.154 779.146 192.153 831.901 215.554C841.819 219.967 851.833 224.484 861.517 228.853C879.299 236.876 897.688 245.172 916.078 253.077C990.08 284.898 1049.98 305.251 1110.28 319.073C1134.06 324.53 1159.02 329.516 1184.48 333.892C1216.65 339.375 1246.81 343.562 1276.67 346.69C1321.99 351.44 1378.4 357.354 1434.57 348.245C1463.45 343.564 1486.88 335.285 1506.19 322.936C1541.57 300.317 1557.97 268.505 1572.45 240.439C1578.74 228.246 1584.68 216.729 1591.61 207.171C1594.31 203.447 1597.02 199.595 1599.63 195.869C1608.41 183.374 1617.49 170.453 1629.15 158.165C1642.3 144.2 1657.61 132.188 1674.64 122.463C1693.94 111.443 1715.03 103.661 1737.3 99.3337C1751.6 96.5558 1766.25 94.8442 1782.1 94.0997C1803.32 93.1021 1825.91 94.1683 1851.16 97.3516C1872.52 100.048 1895.42 104.232 1921.17 110.148C1962.7 119.689 2003.11 133.696 2038.04 150.654C2077.02 169.521 2111.61 192.64 2140.85 219.368C2167.18 243.435 2188.64 269.858 2204.61 297.905L2203.47 298.08C2169.74 238.868 2110.7 186.671 2037.23 151.108C2002.39 134.195 1962.09 120.228 1920.68 110.715C1865.2 97.9704 1821.21 92.885 1782.21 94.7166C1766.46 95.4553 1751.92 97.1555 1737.72 99.9124C1684.72 110.207 1650 137.422 1630.22 158.438C1618.59 170.695 1609.52 183.6 1600.75 196.081C1598.13 199.808 1595.42 203.662 1592.72 207.388C1585.81 216.917 1579.88 228.421 1573.6 240.598C1559.1 268.725 1542.66 300.605 1507.11 323.327C1487.65 335.773 1464.03 344.118 1434.92 348.838C1415.19 352.036 1394.15 353.615 1371.03 353.615Z" fill="#FFE492"/>
<path d="M1396.43 356.688C1357.68 356.688 1320.43 351.515 1288.56 347.09C1258.58 342.928 1228.4 337.727 1196.28 331.19C1170.93 325.993 1146.09 320.216 1122.46 314.019C1051.62 295.463 988.461 268.829 930.767 242.809C918.987 237.497 907.086 232.022 895.581 226.727C879.606 219.374 863.085 211.771 846.531 204.445C793.106 180.865 736.119 164.828 677.158 156.78C600.884 146.371 521.796 148.296 435.376 162.667C390.88 170.066 346.363 180.071 306.634 191.601C275.991 200.492 250.065 211.718 222.618 223.602C220.672 224.444 218.723 225.289 216.762 226.135L215.7 226.595C209.028 229.488 202.128 232.477 195.134 235.477C178.374 242.699 159.919 250.168 138.572 255.874C113.792 262.498 88.8111 265.801 62.192 265.973C15.4683 266.275 -32.153 259.45 -78.2024 252.849C-81.4304 252.386 -84.6437 251.925 -87.8424 251.47C-118.21 247.141 -140.363 244.574 -159.665 243.146C-231.399 237.842 -303.595 236.174 -357.742 238.571L-357.852 237.907C-303.617 235.504 -231.315 237.174 -159.485 242.486C-140.128 243.917 -117.928 246.49 -87.5053 250.827C-84.3066 251.282 -81.0933 251.743 -77.8616 252.207C-31.9001 258.795 15.6296 265.603 62.1737 265.306C119.981 264.933 160.692 249.448 194.313 234.963C201.308 231.963 208.207 228.973 214.879 226.083L215.942 225.623C217.902 224.775 219.851 223.932 221.797 223.09C249.292 211.185 275.262 199.94 306.007 191.018C345.809 179.467 390.411 169.445 434.984 162.033C475.955 155.22 514.439 151.287 552.629 150.008C595.23 148.581 637.235 150.643 677.48 156.136C736.629 164.209 793.784 180.292 847.359 203.937C863.924 211.267 880.449 218.871 896.428 226.226C907.933 231.521 919.826 236.995 931.602 242.305C989.237 268.296 1052.32 294.901 1123.03 313.423C1146.63 319.611 1171.43 325.38 1196.75 330.57C1228.81 337.096 1258.95 342.29 1288.89 346.447C1334.86 352.829 1392.07 360.772 1448.6 352.414C1478.26 348.027 1501.84 339.697 1520.69 326.948C1555.71 303.265 1568.81 269.495 1580.37 239.698C1585.01 227.726 1589.4 216.419 1594.81 207.133C1596.81 203.699 1598.82 200.15 1600.76 196.717C1608.36 183.29 1616.22 169.405 1626.96 156.091C1638.66 141.493 1652.73 128.752 1668.79 118.225C1686.91 106.346 1707.24 97.5463 1729.21 92.0687C1743.48 88.5121 1758.18 86.0465 1774.16 84.5291C1795.69 82.4861 1819.58 82.5547 1845.17 84.7328C1867.57 86.6405 1892.07 90.2371 1917.99 95.4253C1961.14 104.063 2002.86 117.538 2038.66 134.391C2078.65 153.17 2113.51 176.512 2142.27 203.773C2168.25 228.4 2188.52 255.417 2202.49 284.072L2201.24 284.235C2171.64 223.519 2113.6 170.479 2037.8 134.886C2002.12 118.088 1960.53 104.658 1917.53 96.0479C1861.79 84.8889 1814.97 81.3342 1774.39 85.1859C1758.53 86.6919 1743.93 89.1404 1729.77 92.6703C1677.49 105.703 1645.65 134.49 1628.15 156.348C1617.43 169.628 1609.58 183.494 1601.99 196.903C1600.05 200.336 1598.04 203.887 1596.04 207.326C1590.65 216.581 1586.26 227.873 1581.63 239.83C1576.06 254.164 1569.76 270.411 1560.61 285.642C1550.13 303.094 1537.4 316.738 1521.71 327.354C1512.64 333.492 1502.21 338.717 1490.71 342.882C1478.35 347.362 1464.3 350.786 1448.95 353.055C1431.38 355.654 1413.75 356.688 1396.43 356.688Z" fill="#FFE492"/>
<path d="M1419.33 360.059C1406.52 360.059 1393.1 359.412 1378.92 358.119C1351 355.573 1324.28 350.954 1300.7 346.882C1270.98 341.747 1239.94 335.359 1208.46 327.898C1183.27 321.893 1158.6 315.332 1135.12 308.394C1067.75 288.503 1009.71 262.056 946.214 232.061C940.572 229.395 934.841 226.677 929.301 224.045C907.482 213.69 884.923 202.982 861.938 192.865C807.626 169.008 748.859 153.897 687.267 147.949C609.575 140.445 525.427 146.919 437.172 167.192C391.884 177.595 347.407 190.709 308.55 205.12C279.293 215.971 255.209 228.763 229.711 242.308C227.121 243.685 224.519 245.065 221.903 246.451C215.392 249.905 208.379 253.612 201.245 257.322C186.285 265.131 168.053 274.028 146.27 280.792C121.886 288.366 96.8426 292.184 69.7142 292.46C20.052 292.968 -30.5005 284.423 -79.3895 276.16L-81.2509 275.846C-105.188 271.802 -130.51 267.716 -153.498 265.235C-223.569 257.675 -296.596 252.426 -359.123 250.455L-359.039 249.743C-296.446 251.715 -223.353 256.968 -153.22 264.537C-130.166 267.025 -104.8 271.117 -80.8258 275.166L-78.9645 275.48C-30.1817 283.724 20.2682 292.248 69.6886 291.744C126.763 291.161 166.181 274.612 200.274 256.814C207.408 253.105 214.414 249.398 220.925 245.946C223.541 244.562 226.142 243.18 228.733 241.805C254.275 228.238 278.402 215.422 307.755 204.536C346.685 190.096 391.247 176.957 436.618 166.535C478.026 157.025 518.773 150.471 557.722 147.06C602.225 143.162 645.896 143.223 687.523 147.242C749.35 153.213 808.334 168.378 862.829 192.316C885.831 202.443 908.402 213.155 930.232 223.516C935.772 226.145 941.503 228.864 947.145 231.53C1010.58 261.496 1068.56 287.915 1135.81 307.771C1159.25 314.698 1183.89 321.249 1209.04 327.247C1240.48 334.697 1271.46 341.075 1301.14 346.202C1347.66 354.241 1405.56 364.242 1462.65 356.579C1493.1 352.491 1516.84 344.112 1535.22 330.959C1569.85 306.18 1579.87 268.83 1587.92 238.818C1591.06 227.128 1594.02 216.087 1598.03 207.1C1599.3 204.267 1600.58 201.349 1601.81 198.525C1608.22 183.857 1614.86 168.688 1624.81 154.02C1640.17 131.194 1669.35 100.659 1721.14 84.8121C1735.45 80.4368 1750.2 77.2154 1766.25 74.9649C1808.24 68.9923 1858.23 70.9247 1914.84 80.7053C1959.61 88.441 2002.64 101.382 2039.3 118.131C2080.3 136.82 2115.43 160.387 2143.71 188.183C2156.69 200.932 2168.15 214.549 2177.8 228.655C2187.01 242.129 2194.61 256.121 2200.38 270.243L2199.04 270.391C2173.59 208.167 2116.53 154.283 2038.39 118.666C2001.87 101.98 1959 89.0883 1914.4 81.3812C1858.06 71.6444 1808.33 69.7177 1766.61 75.6522C1750.68 77.8856 1736.03 81.0823 1721.84 85.4252C1670.41 101.161 1641.39 131.541 1626.1 154.255C1616.18 168.884 1609.56 184.032 1603.15 198.681C1601.91 201.505 1600.64 204.425 1599.37 207.26C1595.37 216.216 1592.41 227.242 1589.28 238.915C1585.23 254.017 1580.64 271.134 1572.79 287.289C1563.77 305.852 1551.84 320.274 1536.33 331.378C1527.48 337.713 1517.12 343.055 1505.56 347.255C1493.1 351.781 1478.78 355.151 1462.99 357.268C1449.14 359.13 1434.67 360.059 1419.33 360.059Z" fill="#FFE492"/>
<path d="M1440.44 363.62C1425.08 363.62 1408.89 362.586 1391.6 360.513C1363.58 357.156 1336.62 351.585 1312.83 346.669C1282.88 340.481 1251.87 333.058 1220.64 324.603C1195.62 317.796 1171.1 310.451 1147.79 302.768C1083.62 281.644 1028.59 254.418 970.323 225.596C967.44 224.17 964.556 222.742 961.665 221.314C934.57 207.925 906.555 194.08 877.349 181.285C822.092 157.126 761.544 142.938 697.387 139.115C616.8 134.311 529.857 145.28 438.967 171.712C393.504 184.933 347.868 201.598 310.466 218.637C282.224 231.502 259.573 245.977 235.592 261.304C232.752 263.119 229.905 264.939 227.036 266.763C221.306 270.413 214.487 274.74 207.349 279.167C194.129 287.386 176.117 297.831 153.964 305.689C129.969 314.201 104.87 318.54 77.2325 318.95C54.5155 319.245 29.4463 317.423 0.588436 313.377C-24.1877 309.904 -48.154 305.365 -74.6742 300.224C-98.8824 295.474 -124.432 290.568 -147.354 287.327C-215.252 277.728 -286.971 269.322 -360.516 262.338L-360.252 261.59C-286.664 268.575 -214.904 276.989 -146.969 286.592C-123.985 289.842 -98.3988 294.756 -74.1613 299.511C-29.7093 308.13 25.6137 318.86 77.1922 318.188C136.161 317.312 174.058 298.68 206.224 278.676C213.358 274.253 220.173 269.927 225.9 266.279C228.769 264.455 231.616 262.635 234.452 260.822C258.473 245.471 281.165 230.971 309.499 218.064C346.978 200.991 392.701 184.293 438.252 171.048C529.417 144.535 616.661 133.538 697.555 138.359C728.571 140.208 759.038 144.501 788.101 151.119C819.285 158.219 849.63 168.175 878.294 180.705C907.533 193.512 935.566 207.365 962.677 220.763C965.567 222.193 968.455 223.619 971.338 225.045C1029.55 253.843 1084.53 281.042 1148.57 302.127C1171.86 309.797 1196.33 317.133 1221.32 323.929C1252.5 332.371 1283.47 339.785 1313.37 345.963C1360.37 355.673 1418.86 367.757 1476.69 360.749C1508.02 356.952 1531.91 348.522 1549.73 334.977C1584.05 309.106 1590.16 269.586 1595.07 237.832C1596.83 226.475 1598.49 215.748 1601.24 207.074C1601.81 205.284 1602.38 203.485 1602.95 201.676C1608.08 185.339 1613.4 168.443 1622.63 151.955C1635.82 128.24 1662.2 96.082 1713.06 77.5604C1727.25 72.3931 1742.05 68.4177 1758.32 65.4057C1780.93 61.1808 1806.13 59.195 1833.21 59.4996C1857.93 59.7776 1884.33 61.9614 1911.67 65.9883C1958.05 72.8177 2002.4 85.2257 2039.92 101.87C2081.93 120.468 2117.33 144.263 2145.14 172.592C2157.9 185.59 2168.94 199.487 2177.97 213.896C2186.62 227.696 2193.45 242.002 2198.26 256.417L2196.82 256.546C2175.84 193.733 2118.3 137.567 2038.97 102.449C2001.61 85.8768 1957.45 73.5203 1911.27 66.7175C1854.32 58.3287 1801.61 58.1231 1758.81 66.1196C1742.66 69.1088 1727.97 73.0538 1713.9 78.1811C1663.39 96.5751 1637.15 128.567 1624.04 152.164C1614.83 168.609 1609.52 185.48 1604.39 201.796C1603.82 203.605 1603.25 205.406 1602.69 207.196C1599.94 215.838 1598.29 226.551 1596.53 237.891C1591.6 269.737 1585.47 309.371 1550.93 335.407C1542.34 341.936 1532.07 347.4 1520.41 351.644C1507.86 356.21 1493.26 359.523 1477.02 361.491C1465.3 362.908 1453.16 363.62 1440.44 363.62Z" fill="#FFE492"/>
<path d="M1460.27 367.328C1442.77 367.328 1424.24 365.858 1404.27 362.907C1376.01 358.731 1348.88 352.21 1324.95 346.458C1294.71 339.189 1263.71 330.726 1232.81 321.309C1207.97 313.713 1183.62 305.581 1160.44 297.144C1103.36 276.376 1054.59 250.934 1002.94 223.997C994.499 219.593 985.768 215.041 977.106 210.565C946.658 194.838 920.658 181.87 892.749 169.706C836.507 145.227 774.182 131.962 707.5 130.279C623.711 128.164 533.961 143.624 440.748 176.229C394.442 192.428 348.847 212.286 312.365 232.148C284.881 247.111 263.395 263.399 240.649 280.643C237.831 282.779 235.002 284.923 232.155 287.069C227.084 290.898 220.372 295.943 213.443 301.002C184.285 322.341 146.19 344.311 84.7408 345.434C82.8245 345.466 80.9009 345.482 78.981 345.482C30.9969 345.482 -17.9911 335.614 -68.1076 324.595L-71.2366 323.902C-96.0604 318.396 -119.51 313.197 -141.216 309.412C-223.015 295.147 -302.125 283.107 -361.907 274.211L-361.479 273.433C-301.682 282.332 -222.55 294.374 -140.721 308.644C-118.957 312.439 -95.4815 317.646 -70.6248 323.158L-67.4993 323.851C-15.5472 335.273 35.1886 345.461 84.6858 344.627C145.454 343.515 183.23 321.715 212.172 300.535C219.097 295.48 225.802 290.439 230.873 286.612C233.72 284.464 236.545 282.322 239.363 280.186C262.145 262.915 283.664 246.601 311.236 231.59C347.792 211.686 393.479 191.788 439.876 175.557C482.939 160.493 526.017 148.926 567.912 141.175C615.98 132.282 662.971 128.345 707.573 129.47C774.599 131.161 837.239 144.49 893.746 169.083C921.695 181.267 947.721 194.248 978.198 209.988C986.863 214.464 995.595 219.018 1004.04 223.422C1055.63 250.332 1104.37 275.75 1161.33 296.476C1184.48 304.903 1208.79 313.021 1233.6 320.607C1264.45 330.012 1295.4 338.462 1325.6 345.72C1373.01 357.115 1432.01 371.295 1490.73 364.911C1522.82 361.421 1546.87 352.941 1564.23 338.987C1598.11 311.938 1600.15 270.194 1601.79 236.652C1602.32 225.709 1602.83 215.37 1604.45 207.04L1604.48 206.85C1608.11 188.197 1611.85 168.91 1620.45 149.88C1627.89 133.282 1638.25 118.359 1651.25 105.522C1665.91 91.0504 1683.98 79.2003 1704.96 70.2994C1719 64.3438 1733.86 59.6126 1750.37 55.837C1794.99 45.5767 1849.66 43.9926 1908.49 51.26C1932.16 54.1844 1955.51 58.6149 1977.9 64.4257C2000.41 70.2708 2021.49 77.3973 2040.54 85.6033C2083.57 104.111 2119.24 128.132 2146.56 156.997C2171.12 182.942 2188.26 212.539 2196.14 242.585L2194.6 242.694C2177.74 178.386 2121.23 121.355 2039.54 86.2258C2001.35 69.772 1955.9 57.9523 1908.13 52.052C1849.64 44.8265 1795.31 46.3935 1751.01 56.5834C1734.62 60.3303 1719.89 65.0236 1705.95 70.9315C1666.77 87.551 1637.73 114.916 1621.97 150.069C1613.4 169.049 1609.66 188.309 1606.04 206.936L1606 207.126C1604.39 215.425 1603.88 225.749 1603.35 236.677C1601.7 270.322 1599.66 312.191 1565.53 339.431C1557.16 346.16 1546.96 351.742 1535.23 356.022C1522.58 360.637 1507.72 363.895 1491.04 365.709C1481.11 366.787 1470.88 367.328 1460.27 367.328Z" fill="#FFE492"/>
<path d="M85.8798 371.99C64.4233 371.99 41.0578 369.817 14.6879 365.381C-11.5136 360.973 -37.4256 354.888 -61.5275 348.971C-65.8913 347.893 -70.2222 346.818 -74.5238 345.749C-95.9363 340.432 -116.162 335.409 -135.064 331.497C-210.437 315.901 -282.281 301.885 -351.762 288.332L-363.274 286.086L-362.696 285.284L-351.183 287.531C-281.699 301.087 -209.843 315.104 -134.456 330.703C-115.502 334.625 -95.2512 339.653 -73.813 344.978C-69.5151 346.046 -65.1842 347.122 -60.824 348.198C-11.3487 360.345 41.2154 372.117 92.1966 371.068C154.866 369.712 192.422 344.344 218.136 322.398C224.724 316.785 231.07 311.191 235.863 306.945C238.508 304.605 241.135 302.267 243.755 299.935C265.483 280.6 286.005 262.338 312.994 245.118C348.62 222.393 394.262 199.291 441.521 180.07C485.365 162.238 529.608 148.149 573.026 138.195C622.828 126.777 671.471 120.852 717.605 120.584C787.024 120.047 851.499 132.457 909.215 157.465C941.209 171.345 969.895 186.359 993.74 199.216C1006.71 206.213 1019.69 213.385 1032.24 220.322C1076.66 244.877 1122.59 270.266 1174.1 290.83C1197.11 300.019 1221.27 308.921 1245.88 317.289C1276.35 327.622 1307.29 337.107 1337.85 345.481C1385.61 358.569 1445.05 374.857 1504.77 369.077C1537.64 365.895 1561.84 357.365 1578.74 343C1612.18 314.725 1609.92 270.694 1608.1 235.315C1607.57 224.853 1607.06 214.97 1607.67 207.013C1609.04 189.076 1611.11 168.23 1618.28 147.812C1624.33 130.511 1633.45 114.858 1645.4 101.291C1658.92 85.9432 1676.25 73.0764 1696.89 63.0464C1710.57 56.3998 1725.9 50.7584 1742.45 46.2765C1766.06 39.8602 1792.57 35.8258 1821.22 34.2874C1848.06 32.8461 1876.35 33.6039 1905.32 36.5379C1929.74 39.013 1953.82 43.0836 1976.88 48.6393C2000.08 54.2293 2021.71 61.1939 2041.17 69.339C2063.6 78.7178 2084.22 89.793 2102.47 102.258C2119.75 114.068 2135.07 127.24 2148 141.405C2172.19 167.906 2188.11 198.114 2194.03 228.758L2192.39 228.844C2179.67 163.038 2124.18 105.145 2040.13 70.0073C2001.64 53.8961 1953.66 42.3087 1905 37.3794C1844.84 31.2849 1788.9 34.6244 1743.21 47.0362C1726.79 51.4819 1711.58 57.0795 1698.01 63.6728C1659.12 82.5714 1632.83 110.931 1619.9 147.966C1612.75 168.329 1610.68 189.139 1609.31 207.047C1608.71 214.975 1609.21 224.843 1609.75 235.292C1610.64 252.746 1611.66 272.53 1608.26 291.655C1604.31 313.847 1595.12 330.788 1580.15 343.448C1572 350.374 1561.88 356.076 1550.07 360.395C1537.32 365.059 1522.18 368.264 1505.08 369.918C1496.45 370.754 1487.83 371.133 1479.26 371.133C1427.93 371.133 1378.2 357.504 1337.08 346.237C1306.48 337.85 1275.49 328.351 1244.99 318.003C1220.33 309.624 1196.14 300.708 1173.1 291.506C1121.48 270.9 1075.5 245.484 1031.04 220.906C1018.49 213.972 1005.52 206.802 992.557 199.808C968.744 186.966 940.099 171.973 908.163 158.12C850.759 133.245 786.661 120.907 717.631 121.437C609.223 122.069 508.199 154.034 442.539 180.741C395.376 199.923 349.825 222.976 314.277 245.655C287.368 262.823 266.875 281.057 245.181 300.361C242.561 302.694 239.93 305.032 237.285 307.374C232.488 311.621 226.139 317.219 219.547 322.837C208.753 332.051 191.807 345.462 169.361 355.515C158.46 360.396 146.86 364.233 134.882 366.919C121.527 369.914 107.186 371.597 92.2662 371.919C90.1521 371.967 88.0233 371.99 85.8798 371.99Z" fill="#FFE492"/>
<g filter="url(#filter0_d_9_103)">
<path d="M92.7689 398.497C71.2867 398.497 47.9689 396.157 21.7381 391.382C-5.4196 386.439 -32.2696 379.49 -54.9499 373.342C-61.9188 371.449 -68.8732 369.53 -75.6003 367.674C-94.4041 362.486 -112.167 357.583 -128.915 353.581C-189.06 339.206 -248.813 325.172 -306.602 311.599C-325.717 307.109 -345.481 302.468 -364.637 297.959L-363.919 297.135C-344.763 301.643 -324.999 306.285 -305.884 310.775C-248.095 324.348 -188.335 338.384 -128.186 352.76C-111.394 356.774 -93.609 361.68 -74.7832 366.876C-68.0597 368.732 -61.1054 370.65 -54.1438 372.542C-7.10506 385.287 47.4559 398.779 99.7012 397.509C163.847 395.913 199.876 368.213 224.102 344.259C230.313 338.123 236.318 331.962 240.854 327.28C243.184 324.877 245.5 322.476 247.812 320.081C268.594 298.538 288.223 278.191 314.757 258.65C349.269 233.237 394.875 206.934 443.167 184.587C510.42 153.6 614.364 115.803 727.634 111.704C799.669 109.027 865.969 120.516 924.685 145.853C951.066 157.243 977.154 170.38 1009.28 188.454C1025.52 197.587 1041.63 207.054 1057.21 216.206C1097.74 240.018 1139.65 264.642 1186.88 285.195C1209.75 295.155 1233.74 304.84 1258.17 313.983C1287.76 325.043 1318.68 335.564 1350.09 345.255C1398.34 360.05 1458.38 378.467 1518.82 373.254C1551.95 370.455 1576.99 361.631 1593.25 347.027C1626.22 317.473 1619.15 269.12 1613.98 233.815C1612.53 223.907 1611.16 214.549 1610.89 207C1610.29 190.223 1610.34 168.101 1616.12 145.758C1626.09 107.041 1650.55 76.7763 1688.81 55.8082C1702.22 48.421 1717.61 42.0028 1734.52 36.7308C1758.59 29.2216 1785.74 24.1705 1815.23 21.7201C1843.02 19.4125 1872.26 19.4487 1902.14 21.8286C1927.36 23.8811 1952.16 27.6014 1975.85 32.8829C1999.78 38.2177 2021.96 45.0148 2041.8 53.0856C2064.73 62.4111 2085.68 73.5244 2104.06 86.119C2121.49 98.0548 2136.75 111.413 2149.44 125.826C2173.26 152.885 2187.94 183.702 2191.92 214.945L2190.18 215.004C2181.62 147.696 2127.15 88.9387 2040.73 53.7996C2001.55 37.8579 1952.23 26.8207 1901.88 22.7235C1839.81 17.7827 1782.25 22.8948 1735.42 37.5076C1718.64 42.7358 1703.39 49.1026 1690.08 56.4308C1652.07 77.26 1627.77 107.354 1617.85 145.88C1612.09 168.162 1612.04 190.24 1612.63 206.985C1612.91 214.507 1614.27 223.854 1615.72 233.749C1618.39 251.998 1621.42 272.684 1619.69 292.879C1617.67 316.395 1609.52 334.256 1594.76 347.483C1586.82 354.617 1576.78 360.443 1564.91 364.799C1552.05 369.523 1536.64 372.668 1519.11 374.149C1491.92 376.493 1462.66 374.387 1429.65 367.71C1400.96 361.905 1373.47 353.474 1349.21 346.037C1317.76 336.333 1286.79 325.797 1257.16 314.721C1232.69 305.565 1208.67 295.867 1185.76 285.894C1138.44 265.299 1096.48 240.649 1055.9 216.811C1040.33 207.661 1024.23 198.2 1008.01 189.075C975.934 171.033 949.894 157.92 923.575 146.558C865.207 121.365 799.328 109.945 727.751 112.605C614.969 116.689 511.369 154.37 444.317 185.263C396.121 207.564 350.61 233.812 316.172 259.172C289.71 278.657 270.111 298.976 249.362 320.487C247.05 322.884 244.734 325.284 242.404 327.687C237.864 332.373 231.855 338.54 225.637 344.682C201.198 368.849 164.807 396.797 99.7782 398.413C97.4662 398.468 95.1248 398.497 92.7689 398.497Z" fill="#FFE492"/>
</g>
<path d="M99.7962 425.005C41.0986 425.005 -20.49 406.272 -75.0876 389.664C-91.8651 384.562 -107.712 379.741 -122.771 375.665L-366 309.832L-365.154 308.989L-121.925 374.821C-106.825 378.907 -90.9601 383.733 -74.1606 388.844C-17.4525 406.093 46.8254 425.645 107.205 423.95C172.765 422.113 207.302 392.08 230.067 366.124C237.512 357.634 244.701 348.996 251.655 340.642C270.675 317.794 290.34 294.168 316.512 272.18C337.294 254.72 363.111 236.41 391.17 219.231C421.952 200.384 454.91 183.092 489.121 167.838C526.842 151.02 565.197 137.108 603.116 126.49C645.058 114.747 686.377 107.079 725.934 103.7C805.176 96.9313 877.247 107.203 940.14 134.233C992.407 156.694 1036.83 184.469 1079.79 211.33C1117.19 234.71 1155.85 258.884 1199.64 279.55C1250.21 303.418 1304.95 325.444 1362.33 345.015C1410.68 361.505 1470.85 382.029 1532.86 377.416C1585.24 373.521 1615.52 355.311 1625.43 321.745C1633.87 293.193 1625.84 259.324 1619.4 232.111C1617.2 222.837 1615.13 214.077 1614.11 206.973C1608.49 167.813 1612.07 135.486 1625.06 108.147C1633.16 91.09 1645.12 75.8852 1660.6 62.9555C1677.89 48.5122 1700.09 36.4717 1726.59 27.169C1749.5 19.1211 1775.33 13.276 1803.36 9.79555C1830.04 6.48269 1858.12 5.3727 1886.84 6.49602C1943.32 8.7046 1998.57 19.4733 2042.41 36.8163C2065.84 46.0866 2087.12 57.2399 2105.65 69.9639C2123.21 82.0235 2138.42 95.57 2150.86 110.23C2174.3 137.847 2187.76 169.275 2189.79 201.115L2187.96 201.147C2183.64 133.344 2128.81 72.1953 2041.3 37.576C1948.36 0.810852 1816.43 -3.23502 1727.6 27.9592C1639.61 58.8601 1603.08 117.393 1615.93 206.903C1616.94 213.984 1619.02 222.732 1621.21 231.995C1627.67 259.267 1635.71 293.209 1627.24 321.89C1622.62 337.511 1613.35 350.066 1599.67 359.207C1591.97 364.346 1582.7 368.546 1572.1 371.687C1560.82 375.031 1547.7 377.275 1533.12 378.361C1527.16 378.804 1521.09 379.027 1514.93 379.027C1492.45 379.027 1468.52 376.074 1442.29 370.092C1412.74 363.352 1384.23 353.626 1361.32 345.813C1303.86 326.214 1249.05 304.158 1198.4 280.256C1154.51 259.547 1115.81 235.344 1078.37 211.939C1035.47 185.112 991.099 157.372 938.964 134.968C876.492 108.123 804.915 97.9176 726.22 104.64C567.032 118.238 403.053 201.281 318.058 272.682C291.956 294.61 272.317 318.204 253.322 341.02C246.364 349.379 239.172 358.023 231.719 366.52C216.605 383.753 201.678 396.092 184.743 405.349C174.172 411.126 162.704 415.68 150.657 418.884C137.261 422.446 122.671 424.472 107.289 424.904C104.805 424.971 102.302 425.005 99.7962 425.005Z" fill="#FFE492"/>
</g>
<defs>
<filter id="filter0_d_9_103" x="-368.637" y="20.0161" width="2564.56" height="386.481" filterUnits="userSpaceOnUse" color-interpolation-filters="sRGB">
<feFlood flood-opacity="0" result="BackgroundImageFix"/>
<feColorMatrix in="SourceAlpha" type="matrix" values="0 0 0 0 0 0 0 0 0 0 0 0 0 0 0 0 0 0 127 0" result="hardAlpha"/>
<feOffset dy="4"/>
<feGaussianBlur stdDeviation="2"/>
<feComposite in2="hardAlpha" operator="out"/>
<feColorMatrix type="matrix" values="0 0 0 0 0 0 0 0 0 0 0 0 0 0 0 0 0 0 0.25 0"/>
<feBlend mode="normal" in2="BackgroundImageFix" result="effect1_dropShadow_9_103"/>
<feBlend mode="normal" in="SourceGraphic" in2="effect1_dropShadow_9_103" result="shape"/>
</filter>
</defs>
</svg>